<?xml version="1.0" encoding="UTF-8"?>
<!DOCTYPE svg PUBLIC "-//W3C//DTD SVG 1.1//EN" "http://www.w3.org/Graphics/SVG/1.1/DTD/svg11.dtd">
<!-- Creator: CorelDRAW X7 -->
<svg xmlns="http://www.w3.org/2000/svg" xml:space="preserve" width="11.8534mm" height="6.9253mm" version="1.1" style="shape-rendering:geometricPrecision; text-rendering:geometricPrecision; image-rendering:optimizeQuality; fill-rule:evenodd; clip-rule:evenodd"
viewBox="0 0 128 75"
 xmlns:xlink="http://www.w3.org/1999/xlink">
 <defs>
  <style type="text/css">
   <![CDATA[
    .fil0 {fill:#156A3C;fill-rule:nonzero;fill-opacity:0.501961}
   ]]>
  </style>
 </defs>
 <g id="Layer_x0020_1">
  <metadata id="CorelCorpID_0Corel-Layer"/>
  <path class="fil0" d="M20 28l0 36c0,3 1,5 3,7 1,1 3,2 5,2l59 0c2,0 4,-1 5,-2 2,-2 3,-4 3,-6 0,-2 0,-6 0,-10 0,-12 1,-29 -2,-33 0,-1 -2,-2 -3,-2 -1,-1 -3,-1 -5,-1l-56 0c-3,0 -5,1 -6,2 -2,2 -3,4 -3,7zm11 25c0,-2 2,-4 4,-4l45 0c6,0 6,8 1,8l-46 0c-2,0 -4,-2 -4,-4zm76 -35l-10 0c1,1 1,1 2,2 3,7 2,14 2,21 5,0 5,0 7,2l5 8c2,1 6,1 9,1 3,0 6,-1 6,-4l0 -36c0,-5 -7,-4 -11,-4 -4,0 -5,3 -8,7 -1,1 -1,2 -2,3zm-106 11c2,6 11,5 13,-1 1,-3 0,-5 3,-9 4,-7 11,-6 17,-6 16,0 32,0 48,0 -2,-6 -5,-9 -11,-9l-57 0c-2,-6 -13,-5 -14,2 0,3 0,21 1,23zm18 35l0 -36c0,-3 1,-6 3,-8 1,-2 4,-3 7,-3l56 0c2,0 4,1 6,1 1,1 3,2 4,4 2,3 2,21 1,33 0,4 0,8 0,10l0 0 0 0c0,3 -1,5 -3,7 -1,1 -4,3 -6,3l-59 0c-2,0 -5,-2 -6,-3 -2,-2 -3,-5 -3,-8z"/>
 </g>
</svg>
