<?xml version="1.0" encoding="UTF-8"?>
<!DOCTYPE svg PUBLIC "-//W3C//DTD SVG 1.1//EN" "http://www.w3.org/Graphics/SVG/1.1/DTD/svg11.dtd">
<!-- Creator: CorelDRAW X7 -->
<svg xmlns="http://www.w3.org/2000/svg" xml:space="preserve" width="34.4075mm" height="33.8666mm" version="1.1" style="shape-rendering:geometricPrecision; text-rendering:geometricPrecision; image-rendering:optimizeQuality; fill-rule:evenodd; clip-rule:evenodd"
viewBox="0 0 3441 3387"
 xmlns:xlink="http://www.w3.org/1999/xlink">
 <defs>
  <style type="text/css">
   <![CDATA[
    .fil0 {fill:#FEFEFE}
    .fil1 {fill:#B0CB1F;fill-rule:nonzero}
    .fil2 {fill:#156A3C;fill-rule:nonzero}
   ]]>
  </style>
 </defs>
 <g id="Layer_x0020_1">
  <metadata id="CorelCorpID_0Corel-Layer"/>
  <g id="_541884817648">
   <path class="fil0" d="M940 387c-7,23 -18,45 -34,64 -21,25 -48,41 -79,52 -32,11 -67,14 -102,14 -34,0 -69,-3 -102,-14 -30,-11 -58,-27 -79,-52 -15,-19 -27,-40 -34,-63 -16,29 -39,54 -66,73 -25,18 -54,29 -83,36 -40,10 -84,10 -125,10l-153 0 0 -498 135 0c46,0 96,0 141,10 30,7 59,19 85,37 21,15 39,33 54,53l0 -100 214 0 0 244c0,18 0,36 2,53 0,4 1,9 2,13 3,0 7,0 9,0 2,0 6,0 9,0 1,-4 2,-9 2,-12 3,-18 2,-36 2,-54l0 -244 215 0 0 101c9,-13 19,-25 30,-36 25,-24 54,-43 86,-55 32,-13 67,-18 101,-18 44,0 87,8 126,28 39,20 70,49 95,85l35 53 -15 7 12 0 1 18 63 -183 211 0 172 498 -223 0 -20 -70 -69 0 -20 70 -223 0 13 -36c-46,33 -100,45 -158,45 -35,0 -70,-5 -103,-18 -32,-12 -61,-31 -85,-55 -17,-17 -30,-36 -42,-56zm2006 -151l78 -227 210 0 172 498 -223 0 -19 -70 -69 0 -20 70 -223 0 2 -6c-27,12 -57,16 -88,16 -33,0 -65,-5 -95,-17 -10,-5 -20,-9 -29,-15l0 22 -484 0 -3 -6 0 6 -209 0 0 -498 166 0c33,0 70,0 103,8 23,5 45,15 64,29 6,5 11,9 16,14l0 -51 347 0 0 45c2,-1 3,-3 5,-4 37,-35 83,-50 134,-50 26,0 52,3 76,11 25,7 49,19 70,33l37 26 -54 125c5,5 11,9 16,14 8,8 14,17 20,27zm-651 73c-3,3 -7,6 -11,9l11 17 0 -26zm509 1906c-15,75 -44,146 -93,208 -68,88 -157,141 -270,141l-747 0 0 -343 745 0c27,0 46,-16 61,-36 24,-32 32,-69 32,-108 0,-39 -8,-76 -32,-108 -15,-21 -34,-36 -61,-36l-419 0c-147,0 -240,-96 -294,-224 -1,-2 -2,-5 -3,-7 1,28 2,55 2,83 0,32 -1,64 -2,96l-1 52 -201 0 174 235 -11 28c-46,121 -123,221 -233,291 -98,65 -207,97 -324,97 -181,0 -323,-89 -431,-229 -123,-160 -172,-349 -172,-548 0,-77 7,-154 24,-229l-252 0 0 986 -269 0 0 -1401c0,-99 21,-195 68,-284 42,-80 102,-147 187,-182 39,-16 80,-24 121,-27 40,-4 80,-4 121,-2 32,1 64,4 96,6l11 0c40,3 80,8 120,15 3,-14 8,-28 15,-42 6,-11 13,-22 23,-31 13,-14 31,-24 51,-25 25,-1 44,13 56,33 6,9 10,19 13,29 7,20 11,41 11,62 0,4 -1,9 -1,14 67,13 131,19 202,20 7,-10 16,-19 25,-27 22,-17 51,-28 79,-26 20,1 40,8 55,21 7,6 12,12 17,19 33,-6 66,-14 99,-22 29,-8 58,-15 88,-21l0 -73 193 -36 0 0 296 -56 0 180c8,2 16,4 24,6 57,15 111,25 168,31l0 -184 55 0c3,0 6,0 9,0l50 1 3 50c0,1 0,2 0,3 16,13 31,27 44,43 20,25 34,55 34,87 55,-4 107,-14 161,-27 7,-11 16,-21 26,-29 22,-17 50,-27 79,-26 20,1 39,8 55,21 35,-5 71,-7 107,-8l0 -1 269 0 0 371 351 0 0 318 -351 0 0 640c0,25 7,55 13,80 5,22 11,52 22,72 36,71 98,94 175,94 20,0 40,0 59,0 20,0 40,0 60,0l55 0 0 314 -55 0c-34,0 -68,1 -102,2 -39,1 -79,2 -118,0l-1 0 -1 0c-41,-5 -82,-13 -119,-28 -86,-34 -147,-101 -189,-181 -24,-45 -41,-93 -52,-142zm-16 -320l0 -911c-55,2 -109,8 -164,20 -2,6 -2,14 -3,18l-3 24 158 0 0 336 -753 0c-18,0 -31,11 -42,26 -18,24 -25,53 -25,83 0,30 7,60 25,85 11,14 24,26 42,26l427 0c162,0 263,105 322,248 6,15 11,30 16,45zm-283 -849l0 -13c-25,5 -50,9 -76,13l76 0zm-406 0c-45,-7 -88,-17 -132,-28 -94,-24 -174,-35 -270,-35 -45,0 -89,2 -134,7 -2,2 -4,3 -6,5 -20,15 -47,24 -72,24 -12,0 -24,-3 -36,-7 -7,2 -15,4 -22,6 -46,12 -90,21 -135,28 97,24 184,73 255,150 67,73 110,161 137,255 6,-96 33,-187 90,-267 59,-83 139,-138 243,-138l82 0zm-604 887l-657 0 0 -288 592 0c-29,-169 -107,-301 -303,-301 -100,0 -174,53 -233,129 -75,98 -104,212 -103,334 1,118 29,231 99,328 53,74 122,126 216,126 78,0 151,-20 218,-60 73,-43 126,-102 148,-185l23 -83zm345 936c2,5 3,9 3,14 3,7 4,14 5,22 3,8 5,16 5,24 2,7 3,13 3,20l2 24 3 43c0,1 0,2 -1,4 3,11 1,23 -3,34 0,9 -1,18 -5,27 0,12 -3,24 -10,34 -1,14 -6,27 -14,37 -2,13 -8,26 -18,35 -4,15 -13,27 -25,35l-10 7c-4,16 -14,30 -28,38l-149 86c-14,8 -32,10 -48,5l-15 9c-13,8 -29,10 -44,6 -15,9 -32,10 -48,5 -15,6 -32,6 -46,1 -14,5 -29,6 -43,1 -13,3 -26,2 -38,-3 -14,2 -27,0 -39,-6 -12,3 -25,1 -37,-5 -9,0 -18,-3 -26,-7 -12,0 -23,-4 -33,-11 -10,-1 -19,-4 -26,-10 -10,-1 -18,-5 -26,-11 -6,-2 -11,-5 -16,-9 -6,-2 -12,-6 -17,-10 -8,-3 -15,-8 -21,-15 -6,-3 -11,-7 -15,-11 -8,-5 -14,-10 -19,-17 0,0 0,-1 0,-1 -6,-4 -11,-8 -15,-14 -1,-1 -2,-3 -3,-5 -5,-4 -10,-9 -14,-14 -3,-3 -6,-6 -9,-10 -3,-4 -5,-9 -7,-14 -2,-2 -5,-5 -6,-8 -2,-2 -4,-5 -5,-8 -1,-1 -2,-2 -3,-3 -3,-5 -6,-11 -8,-16 0,-1 -1,-2 -1,-2 -5,-8 -9,-16 -11,-25 0,-1 0,-1 0,-1 -4,-6 -6,-12 -8,-18 -4,-7 -6,-15 -7,-23 -3,-7 -5,-14 -5,-21 -3,-8 -5,-16 -5,-24 -3,-8 -4,-17 -3,-25 -2,-8 -3,-16 -1,-23 -4,-11 -4,-22 -1,-33 -2,-10 -1,-21 3,-30 -2,-12 -1,-23 4,-34 -1,-10 2,-20 6,-29 1,-12 5,-25 13,-34 1,-16 7,-31 19,-42 2,-16 11,-31 25,-41l3 -1c3,-14 12,-27 24,-35l25 -18c5,-11 14,-21 25,-27l78 -46c13,-7 27,-9 41,-7l23 -14c15,-8 32,-10 47,-5l9 -5c16,-9 34,-11 50,-5l0 -1c17,-10 38,-10 55,-3 15,-7 32,-8 47,-3 11,-3 23,-2 34,2 15,-4 30,-2 42,5 17,-3 35,1 48,11 8,1 15,4 22,7 12,0 23,4 33,11 10,1 19,5 27,10 9,2 18,6 25,11 6,3 12,6 16,10 6,2 12,6 17,10 9,3 16,9 22,16 6,3 11,7 15,11 7,5 13,10 18,17 1,0 1,1 1,1 5,4 10,9 14,14 2,2 3,4 4,6 5,4 10,8 14,14 3,3 6,6 9,10 3,4 5,9 7,14 2,2 4,5 6,8 2,3 4,5 5,8 1,2 2,3 3,4 3,5 6,11 8,16 0,1 1,2 1,3 1,1 2,2 2,3l21 50zm18 -63l1 -1 -38 -88 202 -116 -16 46 51 -30 12 17 68 -39 14 20 70 -40 10 15 26 -16 10 17 27 -16 14 21 37 -21 11 17 31 -17 13 20 18 -10 62 100 -8 5 8 13 -10 7 10 15 -11 8 11 19 -9 5 9 15 -6 4 6 10 -13 9 13 22 -11 7 11 18 -7 5 7 11 -12 8 12 21 -6 4 6 9 -12 9 12 20 -11 7 11 18 -7 5 7 11 -10 7 10 17 -7 5 7 11 -9 6 9 15 -6 4 6 10 -10 7 10 16 -11 7 11 18 -11 7 11 19 -7 5 7 12 -12 8 12 19 -10 8 10 16 -8 6 8 13 -11 8 4 7 -18 16 5 14 -2 32 24 42 -111 54 -15 -16 -21 11 -9 -8 -27 16 -8 -10 -23 13 -12 -16 -29 17 -12 -19 -33 20 -10 -16 -27 16 -11 -18 -1 1 -62 -100 12 -8 -12 -20 8 -5 -8 -13 11 -7 -11 -18 11 -7 -11 -18 10 -7 -10 -18 6 -4 -6 -10 9 -6 -9 -15 6 -4 -6 -11 10 -7 -10 -17 7 -5 -7 -11 10 -7 -10 -16 13 -9 -13 -21 6 -4 -6 -10 12 -8 -13 -20 8 -5 -7 -12 10 -7 -10 -16 13 -9 -14 -23 8 -4 -8 -12 9 -6 -1 -1 -61 35 -14 -21 -81 47 -50 -81 -15 -43zm1371 36c8,2 15,5 22,10 7,1 13,2 19,5 5,2 10,4 15,7 5,2 10,3 14,6 5,2 9,4 12,7 5,1 9,3 13,6 4,2 9,5 12,9 5,2 9,4 13,7 3,2 6,5 8,7 3,2 6,4 9,7 4,3 7,7 10,11 4,3 8,6 12,10 3,4 6,9 9,14 4,3 8,8 11,13 3,4 5,8 6,12 3,4 6,8 8,13 2,3 3,6 4,10 0,2 1,4 1,6 3,5 6,11 7,17 1,4 2,9 2,13 1,2 1,5 2,7 0,2 1,3 1,5 1,4 1,9 1,13 0,4 1,7 1,11 0,5 -1,11 -2,17 0,5 0,11 -1,16 0,5 -2,11 -4,16 -1,5 -2,9 -3,14 -2,4 -4,9 -6,13 -1,4 -3,8 -5,12 -1,4 -4,7 -6,11 -2,3 -3,6 -5,8 -1,3 -3,5 -5,7 -2,4 -5,8 -8,11 -1,2 -3,4 -5,7 -5,6 -11,11 -17,14 -4,8 -10,14 -17,19 -7,7 -16,12 -26,14l-8 2c-7,12 -18,22 -31,27 -6,4 -12,7 -19,9l-249 65c-12,3 -24,2 -36,-2l-24 6c-11,2 -22,2 -33,-2l-8 2c-14,4 -29,2 -42,-4l-16 4c-9,2 -18,2 -27,0 -11,1 -22,0 -32,-5l-3 1c-7,2 -14,2 -22,2 -2,-1 -4,-1 -6,-1 -2,0 -4,0 -6,0 -7,-1 -14,-3 -20,-6 -7,2 -15,2 -22,1 -1,0 -3,0 -5,0 -7,-1 -14,-3 -21,-6 -7,1 -14,1 -21,0 -7,-1 -15,-3 -21,-7 -8,1 -15,1 -22,-1 -10,-1 -18,-5 -26,-10 -7,1 -14,1 -21,-1 -23,-4 -41,-21 -47,-44 -1,-4 -2,-8 -2,-12 -1,-1 -1,-3 -1,-4 -4,-17 -1,-34 8,-48 1,-5 3,-9 4,-13 2,-5 5,-9 7,-13 1,-5 3,-10 5,-15 1,-3 3,-7 5,-10 1,-4 2,-8 4,-12 2,-5 4,-9 7,-13 4,-22 20,-42 44,-48 18,-5 36,-1 50,8 8,-1 16,0 24,2 7,1 14,3 21,7 7,-2 15,-1 23,0 10,1 19,4 27,9l2 0c10,-3 21,-3 31,-1 10,0 20,2 29,6l3 -1c9,-3 20,-3 29,0 10,-2 20,-1 29,2l4 -1c9,-3 19,-3 28,-1l6 -2c13,-3 26,-2 38,3l49 -13c7,-8 16,-14 26,-18 2,-2 5,-4 7,-6 1,-1 2,-2 2,-2 0,0 0,-1 0,-1 0,0 -1,-1 -1,-1 -1,-1 -2,-2 -2,-3 -2,0 -3,-2 -5,-3 -1,-1 -3,-2 -4,-3 -2,0 -4,-1 -6,-2 -1,-1 -2,-1 -2,-1 -2,-1 -4,-2 -6,-3 -4,-1 -7,-3 -11,-4 -4,-1 -8,-2 -12,-4 -4,-1 -9,-2 -13,-3 -5,-1 -10,-2 -15,-4 -6,0 -13,-1 -19,-3 -7,0 -15,-1 -22,-4 -11,1 -22,-1 -32,-5l-2 0c-9,3 -18,3 -27,1 -8,1 -17,0 -25,-3l-2 0c-9,2 -18,3 -26,1 -13,2 -27,0 -38,-6l-22 6c-7,2 -15,2 -22,1 -16,3 -32,-1 -45,-9l-27 7c-32,8 -66,-13 -74,-45 -2,-9 -2,-19 0,-29 1,-3 2,-7 3,-10 1,-4 1,-7 2,-11 1,-4 2,-8 4,-12 0,-4 0,-8 1,-12 1,-4 2,-7 3,-11 1,-3 1,-7 2,-10 0,-2 1,-5 2,-7 0,-3 1,-5 1,-8 0,0 0,-1 0,-1 1,-3 2,-6 3,-9 0,-3 1,-6 1,-9 1,-3 2,-6 3,-9 0,-2 0,-5 1,-8 1,-3 2,-6 3,-9 0,-4 0,-7 1,-10 1,-4 2,-8 4,-12 0,-4 1,-8 2,-12 0,-3 1,-6 2,-8 0,-3 1,-6 1,-9 1,-4 2,-7 3,-11 1,-4 1,-8 2,-12 1,-4 2,-8 4,-12 0,-4 1,-9 2,-13 1,-4 2,-7 3,-11 0,-3 1,-7 2,-11 1,-4 2,-8 3,-12 0,-4 1,-8 2,-12 1,-4 2,-7 3,-10 0,-3 1,-7 1,-10 1,-2 1,-5 2,-7 0,-2 1,-5 1,-7 1,-2 1,-4 2,-5 0,-2 1,-3 1,-5 2,-26 21,-49 47,-55l11 -2c14,-4 28,-2 41,4l17 -4c7,-2 14,-2 20,-2 4,0 7,0 11,0 8,0 16,0 23,3l4 -1c8,-2 16,-3 24,-1 12,-2 23,-1 34,4l11 -3c10,-3 21,-3 31,0l3 0c13,-3 26,-2 38,3l10 -3c13,-3 26,-2 38,3l13 -3c10,-3 21,-2 31,0l2 0c13,-4 27,-2 40,3l14 -3c10,-3 20,-3 29,0 16,-4 33,-2 46,6l29 -6c7,-2 15,-2 22,-1 14,-2 27,1 39,7l28 -6c8,-2 17,-3 25,-1 25,3 45,21 52,46 1,7 2,14 1,21 0,3 0,6 0,9 0,4 0,8 -1,11 1,4 1,8 1,12 0,3 0,6 0,9 0,3 0,5 0,8 0,3 0,6 0,8 0,3 0,6 0,9 0,1 0,3 0,4 0,1 0,2 0,2l0 1c0,2 0,4 0,6 0,2 0,5 0,7 0,0 0,1 0,2 0,4 0,7 0,11 0,3 0,6 0,10 1,27 -18,52 -44,59l-22 6c-7,2 -14,3 -21,2 -12,1 -24,-2 -34,-7l-18 5c-8,2 -16,3 -24,2 -7,1 -14,0 -21,-1 -7,1 -14,2 -21,1 0,0 -1,0 -2,0 3,0 5,1 7,2 6,1 11,3 16,5 6,1 12,2 17,4zm-2340 422c1,7 2,14 1,20 1,6 0,12 0,17 3,24 -8,49 -30,61l-7 4c-13,8 -30,10 -45,6 -9,2 -19,3 -28,1 -12,2 -24,1 -35,-3 -12,5 -25,5 -37,2 -10,3 -21,3 -31,1 -8,2 -17,2 -26,0 -11,2 -23,1 -34,-3 -11,4 -23,5 -34,3 -12,2 -23,2 -34,-2 -13,4 -27,4 -40,0 -11,4 -22,4 -33,2 -11,2 -22,2 -32,-2 -11,4 -23,4 -34,2 -9,2 -18,2 -27,0 -9,2 -18,2 -27,0 -11,2 -23,2 -33,-2 -12,4 -24,4 -35,1 -11,3 -23,3 -34,0 -13,4 -28,3 -41,-2 -12,5 -26,6 -39,2 -12,4 -25,3 -36,-1 -15,5 -32,4 -46,-2 -27,12 -60,2 -76,-24 -4,-7 -7,-14 -8,-22 -8,-13 -10,-28 -6,-42 -2,-8 -2,-17 -1,-25 -1,-7 -1,-14 0,-21 -4,-24 7,-49 29,-62l104 -60c14,-8 29,-10 44,-6l264 -153c2,-18 11,-35 27,-46l14 -9c2,-9 6,-17 11,-24 0,-2 0,-4 1,-6 0,-1 0,-1 0,-2 -1,-1 -1,-1 -1,-2 -1,-1 -2,-2 -3,-3 0,-1 0,-1 0,-1 -4,-2 -6,-4 -9,-7 -5,-1 -9,-3 -14,-5 -5,-2 -10,-3 -14,-6 -8,0 -15,-2 -21,-5 -11,1 -21,0 -30,-3 -10,2 -21,2 -31,-1 -14,5 -29,4 -43,-1l-3 2c-16,10 -35,12 -52,6l-18 10c-18,11 -39,12 -57,4l-28 16c-28,17 -64,9 -83,-18 -1,-3 -3,-6 -4,-9 -2,-2 -4,-5 -6,-7 -2,-3 -3,-5 -4,-8 -2,-2 -3,-3 -4,-5 -3,-4 -6,-8 -8,-13 -1,-2 -3,-4 -5,-6 -3,-4 -5,-8 -7,-13 -1,0 -1,-1 -1,-1 -4,-5 -8,-10 -10,-15 -4,-4 -7,-9 -9,-13 -3,-3 -5,-6 -6,-9 -17,-29 -7,-66 22,-83l19 -11c12,-7 27,-10 40,-8l27 -15c15,-9 32,-10 47,-6l17 -10c16,-9 34,-10 50,-5l8 -5c18,-9 38,-10 55,-3l5 -3c15,-8 32,-10 47,-6 13,-5 28,-6 41,-1 16,-6 33,-6 48,1 14,-6 30,-5 45,0 14,-4 29,-2 42,4 12,-2 25,-1 36,3 10,0 20,2 30,6 11,0 22,2 32,8 10,0 20,3 29,8 8,1 15,3 22,7 10,2 20,6 27,13 11,2 22,7 30,14 8,3 15,7 21,13 8,4 15,9 21,17 7,3 13,8 18,14 7,5 12,11 16,18 1,1 1,2 2,3 5,5 10,11 13,17 1,2 2,4 3,6 4,3 6,7 9,11 4,7 6,14 7,22 1,1 2,2 2,3 5,9 8,19 8,29 4,10 5,20 4,30 3,13 3,26 -1,38 1,15 -4,31 -13,43 -1,19 -10,37 -27,48 -3,17 -13,32 -28,41l-15 9c-5,13 -14,25 -26,32l-28 18c-6,9 -13,16 -22,21l-58 34c3,0 7,1 10,2 10,-3 22,-4 32,-1 11,-3 23,-2 34,1 13,-4 27,-4 39,0 11,-3 23,-4 34,-2 22,-5 45,3 60,20 10,6 18,14 24,23 6,12 9,25 8,38 0,6 0,11 0,16 0,5 0,11 -1,17 1,7 1,14 0,21zm-240 -1935c14,-24 30,-48 48,-70 75,-99 168,-175 281,-211 -27,-3 -54,-8 -82,-14 -7,22 -21,41 -43,53 -31,18 -71,19 -103,1 -33,-20 -54,-58 -46,-95 -26,-4 -53,-6 -80,-8l-57 -1c-5,0 -9,0 -13,0l-49 0c-75,0 -138,22 -175,92 -10,19 -17,51 -22,72 -5,24 -12,54 -12,79l0 30 353 0 0 72zm-352 -1021c7,-2 14,-5 18,-9 9,-8 11,-29 11,-40 0,-12 -2,-33 -11,-42 -4,-4 -11,-6 -18,-8l0 99zm1012 2603c0,8 -2,16 -5,24 1,6 0,12 -1,17 1,6 0,12 -1,18 1,7 1,14 -1,21 2,8 2,16 1,24 1,6 2,12 2,18 1,5 1,10 1,16 2,6 4,12 4,19 1,3 2,7 2,10 4,6 6,12 7,19 0,0 1,0 1,1 1,2 2,4 3,6 1,2 3,4 4,6 1,3 3,5 4,7 1,2 2,3 3,4 4,3 7,7 10,11 1,0 2,1 3,2 4,2 8,4 11,7 5,1 10,3 15,6 7,0 15,1 22,4 10,-4 21,-4 32,-2l28 -16c2,-3 6,-6 9,-9 1,-9 4,-18 9,-26 0,-6 2,-12 5,-18 0,-9 1,-17 5,-25 -1,-6 0,-12 1,-18 -1,-6 -1,-12 0,-19 0,-7 0,-14 2,-21 -2,-8 -3,-17 -1,-25 -2,-6 -2,-12 -2,-18 -1,-5 -2,-11 -1,-16 -3,-6 -4,-13 -5,-19 -1,-4 -1,-8 -2,-12 0,0 0,0 0,0 -3,-6 -6,-12 -7,-19 0,0 0,-1 0,-1 -2,-2 -3,-4 -4,-6 -1,-2 -3,-5 -4,-7 -1,-2 -2,-5 -3,-7 -2,-1 -3,-3 -4,-4 -4,-3 -7,-7 -10,-11 -1,-1 -2,-1 -3,-2 -4,-2 -8,-4 -11,-7 -5,-2 -10,-4 -15,-6 -7,0 -15,-2 -22,-4 -10,3 -21,4 -32,1l-19 11c-4,9 -10,17 -18,23 -1,9 -3,17 -8,25 -1,6 -3,12 -5,18z"/>
   <path class="fil1" d="M2803 2642c2,0 4,0 5,1l5 -1c2,0 4,0 6,2l5 -2c4,0 7,2 8,5 0,1 0,2 0,3l29 -8c2,0 5,1 7,3l12 -3c3,0 7,2 8,5 0,3 -1,5 -3,7l45 -12c3,0 7,2 7,5 1,1 1,1 1,1l25 -6c4,0 7,2 8,5 1,3 0,5 -2,7l43 -12c3,0 7,2 8,5 0,2 0,4 -1,5l43 -10c3,0 7,2 8,5 0,1 0,2 0,2l26 -7c4,0 7,2 8,5 1,2 0,5 -2,6l47 -11c4,0 7,2 8,5 0,1 0,1 0,1l22 -6c4,0 7,2 8,5 1,4 -1,7 -4,8l-133 35 203 -48c2,0 5,1 6,3l10 -3c4,0 7,2 8,5 1,4 -1,7 -5,8l-147 38 217 -51c1,0 3,0 4,1 3,-1 6,2 7,5 1,3 -1,7 -5,8l-33 8 30 -7c4,-1 7,1 8,5 0,1 0,2 0,2 1,4 -1,7 -5,8l-284 75 281 -66c4,-1 7,1 8,4 0,1 0,2 0,3 1,3 -1,6 -5,7l-120 31 117 -28c4,-1 7,1 8,5 0,1 0,1 0,2 1,3 -1,6 -5,7l-47 12 44 -10c4,-1 7,1 8,5 0,1 0,1 0,2 0,2 0,4 -1,5 0,1 1,2 1,3 0,1 0,1 0,2l0 0 0 0c0,1 0,3 -1,4 0,1 1,2 1,3 0,1 0,2 0,4 0,0 0,0 0,0 0,1 0,2 0,3 1,3 -1,6 -5,7l-94 25c-3,1 -5,0 -7,-2l-9 2c-3,1 -6,-1 -7,-4l-19 4c-3,1 -5,0 -7,-2l-8 2c-3,1 -5,0 -7,-2l-8 2c-3,1 -7,-1 -8,-4l-17 4c-3,1 -6,-1 -7,-4l-19 4c-3,1 -7,-1 -8,-4 0,-2 0,-3 0,-4l-32 8c-3,1 -7,-1 -8,-4l-19 4c-3,1 -7,-1 -8,-4 0,-1 0,-2 0,-3l-31 7c-3,1 -7,-1 -8,-4 0,-1 0,-1 0,-2l-28 6c-3,1 -7,-1 -7,-4 -1,-2 -1,-4 0,-5l-35 9c-4,1 -7,-1 -8,-4 -1,-4 1,-7 4,-8l8 -2 -251 59c-4,1 -7,-1 -8,-5 0,-1 0,-3 0,-4 0,-3 2,-5 5,-6l5 -1c-3,0 -6,-2 -7,-5 0,-2 0,-3 1,-5 0,-2 2,-5 5,-6l188 -49 -181 43c-3,0 -7,-2 -8,-5 0,-2 0,-3 1,-5 0,-3 2,-6 5,-7l260 -68 -252 59c-4,1 -7,-1 -8,-5 0,-1 0,-3 0,-4 0,-3 2,-6 5,-7l171 -44 -163 38c-4,1 -7,-1 -8,-5 -1,-1 0,-3 0,-4 0,-3 2,-6 5,-7l229 -60 -221 52c-4,1 -7,-2 -8,-5 0,-2 0,-3 1,-4 0,-3 2,-6 5,-7l137 -35 -131 30c-3,1 -7,-1 -7,-5 -1,-1 -1,-2 0,-4 0,-2 2,-5 5,-6 -1,-1 -2,-2 -2,-3 -1,-2 -1,-3 0,-5 0,-1 0,-1 0,-2 1,-2 3,-4 5,-5l74 -19zm-872 98l50 -29 7 9 -22 21 87 -50 6 9 -51 40 124 -71 7 9 -97 71 173 -100 7 10 -85 55 114 -65 6 10 -105 69 137 -79 6 10 -126 88 171 -98 6 10 -88 61 123 -71 7 10 -109 77 133 -77 6 10 -63 42 57 -33 6 10 -93 63 87 -51 6 11 -110 75 104 -60 6 10 -70 46 64 -37 7 11 -40 25 33 -19 7 10 -131 91 124 -71 7 10 -105 71 98 -57 7 10 -50 32 43 -24 7 10 -119 81 112 -65 7 11 -23 14 16 -9 7 10 -124 86 117 -68 7 10 -102 69 95 -55 7 10 -43 28 36 -21 7 10 -98 65 91 -52 7 10 -39 25 32 -19 7 11 -75 49 68 -40 7 11 -15 9 8 -5 7 11 -101 68 94 -55 7 10 -108 73 101 -58 7 10 -108 73 101 -58 7 10 -61 40 54 -32 7 11 -120 82 113 -65 7 10 -100 68 93 -54 7 10 -69 47 62 -36 7 10 -71 53 64 -37 7 9 -47 37 40 -23 7 9 -23 19 22 -13 -18 33 20 -12 -7 25 6 10 -25 14 6 -23 -40 18 20 -29 -51 30 -6 -10 23 -19 -49 29 -7 -10 47 -36 -80 46 -7 -10 71 -53 -109 63 -6 -10 69 -47 -100 57 -6 -10 99 -68 -105 61 -6 -11 120 -82 -114 66 -6 -11 61 -39 -55 31 -6 -10 108 -74 -102 59 -6 -10 108 -73 -102 58 -6 -10 101 -68 -95 55 -6 -11 14 -9 -8 5 -6 -11 74 -49 -68 40 -6 -11 38 -24 -32 18 -6 -10 97 -66 -91 53 -6 -11 42 -27 -36 21 -6 -10 102 -69 -96 55 -6 -10 124 -86 -118 68 -6 -10 22 -15 -16 9 -6 -10 118 -81 -112 65 -6 -11 49 -32 -43 25 -6 -10 105 -71 -99 57 -6 -10 130 -91 -124 71 -6 -10 39 -25 -33 19 -6 -11 70 -46 -64 37 -6 -10 110 -75 -104 60 -6 -11 94 -62 -88 50 -6 -10 63 -42 -57 33 -6 -10 108 -77 -135 78 -7 -10 88 -61 -164 95 -7 -10 126 -88 -213 123 -7 -10 105 -69 -105 61 -6 -10 84 -55 -84 48 -6 -10 97 -70 -99 57 -7 -10 51 -40 -51 30 -7 -9 22 -21 -31 18 6 -20 -2 2 -7 -11 31 -18 -6 20zm-818 5c0,-1 -1,-2 -1,-2 -2,-3 -1,-7 2,-9l79 -46c3,-1 7,0 9,3 1,3 1,6 -2,8l-7 5 64 -37c3,-1 7,0 9,3 1,3 0,7 -2,8l-65 44 114 -66c3,-1 7,0 9,3 1,3 0,7 -3,9l-106 70 150 -87c3,-1 7,0 9,3 1,3 0,7 -3,9l-165 108 210 -121 1 0 0 0c3,-2 7,-1 9,2 1,3 0,7 -3,9l-111 69 138 -79c3,-2 7,-1 9,2 1,4 0,8 -3,9l0 0 -141 89 169 -98c3,-2 7,-1 9,3 2,3 1,6 -2,8l-237 151 270 -156c3,-2 7,-1 9,2 1,1 1,2 1,3 1,0 3,1 4,2 2,3 1,8 -2,10l-29 20 44 -26c3,-1 7,-1 9,2 2,3 2,7 -1,9l-52 41 74 -44c3,-1 6,-1 8,2 3,3 2,7 -1,9l-51 40 70 -40c3,-2 6,-1 8,1 3,3 2,7 -1,10l-48 37 65 -38c3,-2 7,-1 9,2 2,3 1,7 -2,9l6 -4c3,-2 7,-1 9,2 2,3 1,7 -2,9l-36 27 47 -28c3,-1 7,-1 9,2 2,3 1,7 -2,10l-16 10 23 -13c3,-2 7,-1 9,2 2,3 1,7 -2,9l-54 41 64 -38c3,-2 7,-1 9,2 2,3 1,7 -2,9l-20 13 26 -14c2,-2 6,-1 8,1 2,3 2,8 -1,10l-63 46 71 -42c3,-2 7,-1 8,2 3,3 2,7 -1,9l-82 62 92 -54c3,-2 7,-1 9,2 1,3 1,7 -2,9l-1 0 -6 5 9 -6c3,-1 7,-1 9,2 2,3 1,7 -2,9l-86 63 91 -53c3,-2 7,-1 9,2 2,3 1,7 -2,9l-30 20 31 -18c3,-2 7,-1 9,2 2,3 1,7 -2,9l-82 58 85 -50c3,-2 7,-1 9,2 2,3 1,7 -2,9l-110 80 113 -67c3,-2 7,-1 9,2 2,3 1,7 -2,9l-25 17 24 -14c2,-2 6,-1 8,2 2,3 1,7 -2,9l-57 39 55 -32c3,-2 7,-1 9,2 2,3 1,7 -2,9l-102 70 100 -58c3,-2 7,-1 9,2 2,3 1,7 -2,9l-88 59 85 -50c3,-1 7,0 8,3 2,3 2,7 -1,9l-58 37 52 -30c3,-2 7,-1 9,2 2,3 1,7 -2,9l-137 94 132 -77 0 -1c2,-1 3,-1 5,0l-113 71 111 -64 0 0 0 0c3,-2 7,-1 9,2 2,3 1,7 -2,9l-223 141 215 -124c3,-2 7,-1 8,2 2,3 1,7 -2,9l-176 111 165 -96c3,-1 7,0 9,3 2,3 1,7 -2,9l0 0 -127 79 116 -67c3,-1 7,0 8,3 2,3 1,7 -2,9l-154 99 137 -79c3,-2 7,-1 9,2 2,3 1,7 -2,9l-111 72 90 -52c3,-2 7,-1 9,2 2,3 1,7 -2,9l-53 34 30 -17c3,-2 7,-1 9,3 2,3 1,6 -2,8l-60 42 18 -10c3,-2 7,-1 9,2 2,3 1,7 -2,9l-148 85c-3,2 -7,1 -9,-2 -2,-3 -1,-7 2,-9l60 -42 -117 67c-2,2 -6,1 -8,-2 -2,-3 -1,-7 2,-9l53 -34 -89 51c-3,2 -7,1 -9,-2 -2,-3 -1,-7 2,-9l112 -72 -149 85 0 0c-3,2 -7,1 -9,-2 -2,-3 -1,-7 2,-9l154 -99 -192 111c-3,2 -6,1 -8,-2 -2,-3 -1,-7 2,-9l0 0 0 0 126 -80 -154 89c-3,2 -7,1 -9,-2 -2,-3 -1,-7 2,-9l1 0 176 -111 -205 118c-3,2 -7,1 -9,-2 -2,-3 -1,-7 2,-9l0 0 224 -141 -254 147c-3,2 -7,1 -9,-2 -2,-3 -2,-7 1,-9l29 -20 -44 25c-3,2 -6,1 -8,-1 -3,-3 -2,-7 1,-10l51 -39 -74 42c-2,2 -6,1 -8,-1 -2,-3 -2,-7 1,-9l51 -40 -69 40c-3,2 -7,1 -9,-1 -2,-3 -1,-7 1,-9l49 -37 -65 37c-3,2 -7,2 -9,-1 -2,-3 -1,-7 2,-9l-7 3c-3,2 -6,1 -8,-1 -2,-3 -2,-7 1,-10l37 -26 -47 27c-3,2 -7,1 -9,-2 -2,-3 -1,-7 2,-9l15 -10 -22 13c-3,1 -7,1 -9,-2 -2,-3 -1,-7 2,-9l54 -40 -64 37c-3,2 -7,1 -9,-1 -2,-3 -1,-7 2,-9l19 -14 -25 15c-2,1 -6,1 -8,-2 -2,-3 -2,-7 1,-9l63 -45 -71 41c-3,1 -6,1 -8,-2 -2,-3 -2,-7 1,-9l82 -61 -92 53c-3,2 -6,1 -8,-2 -2,-3 -1,-7 2,-9l0 0 6 -4 -9 5c-3,2 -6,1 -8,-2 -2,-3 -2,-7 1,-9l86 -61 -91 52c-3,2 -7,1 -9,-2 -2,-3 -1,-7 2,-9l30 -20 -31 18c-3,2 -7,1 -9,-2 -2,-2 -1,-7 2,-9l82 -56 -85 49c-3,1 -7,1 -8,-2 -3,-3 -2,-7 1,-9l110 -78 -113 65c-3,2 -6,1 -8,-2 -2,-3 -1,-7 2,-9l24 -16 -23 13c-3,2 -7,1 -9,-2 -2,-3 -1,-7 2,-9l57 -37 -54 31c-3,2 -7,1 -9,-2 -2,-3 -1,-7 2,-9l101 -69 -99 58c-3,2 -7,1 -9,-2 -2,-3 -1,-7 2,-9l87 -58 -84 48c-3,2 -7,1 -9,-2 -2,-3 -1,-7 2,-9l57 -37 -51 30c-3,2 -7,1 -9,-2 -2,-3 -1,-7 2,-9l136 -92 -131 76 -1 0c-3,2 -7,1 -8,-2 -2,-3 -1,-7 2,-9l199 -124 -192 111c-2,1 -6,0 -8,-3 -2,-3 -1,-7 2,-8l0 -1 0 0 237 -151 -228 132c-3,1 -7,0 -8,-2 -2,-4 -1,-8 2,-9l0 -1 0 0 141 -88 -130 75 0 0c-3,2 -7,1 -9,-2 -2,-3 -1,-7 2,-9l111 -70 -98 57c-2,2 -6,1 -8,-2 -2,-3 -1,-7 2,-9l165 -109 -145 84c-3,2 -7,1 -9,-2 -2,-3 -1,-7 2,-9l0 0 106 -70 -82 47c-3,2 -7,1 -8,-2 -2,-3 -2,-7 1,-9l65 -44 -30 18c-3,2 -7,1 -9,-2 -2,-3 -1,-7 2,-9l44 -31zm-1022 -15c-3,2 -7,1 -9,-2 -2,-4 -1,-7 2,-9l20 -11c3,-2 7,-1 8,2 2,2 2,5 0,6l-1 3 60 -34c3,-2 7,-1 9,2 1,3 1,6 -2,8l-21 19 78 -45c3,-2 7,-1 9,2 2,3 1,7 -2,9l-45 35 96 -56c3,-1 7,0 9,3 1,3 1,6 -2,8l-78 59 131 -76c3,-2 7,-1 9,2 1,3 0,7 -2,9l-59 39 91 -52 0 0 0 0c3,-2 7,-1 9,2 2,3 1,7 -2,9l-77 51 110 -63c3,-2 7,-1 9,2 2,3 1,7 -2,8l-98 71 139 -80c4,-2 8,-1 9,2 2,3 1,7 -2,9l-68 48 99 -57c4,-2 7,-1 9,3 2,2 1,6 -1,8l-74 55 107 -61c3,-2 7,-1 9,2 1,3 0,7 -2,9l-35 24 53 -31c3,-2 7,-1 9,2 2,3 1,7 -2,9l-51 37 73 -42c3,-2 7,-1 9,2 2,3 1,7 -2,9l-60 45 83 -48c3,-2 7,-1 9,2 1,3 1,7 -2,9l-37 26 52 -30c3,-2 7,-1 9,3 1,3 0,6 -2,8l-17 12 27 -16c3,-2 7,-1 9,2 2,3 1,7 -2,9l-74 57 96 -55c3,-2 7,-1 8,2 2,3 1,7 -1,9l-63 45 76 -44c3,-2 7,-1 9,3 2,3 1,6 -2,8l-26 18 33 -19c4,-2 8,-1 9,2 2,3 1,7 -2,8l-80 59 92 -54c4,-1 7,0 9,3 2,3 1,7 -2,9l-7 4 10 -6c4,-2 7,-1 9,3 2,2 1,6 -2,8l-104 74 112 -65 0 0 1 -1c3,-1 7,0 9,3 1,3 0,7 -2,8l-104 69 108 -62c3,-2 7,-1 9,2 2,3 1,7 -2,9l-290 167 0 0c-3,2 -7,1 -9,-2 -2,-3 -1,-7 2,-9l103 -68 -56 32c-3,2 -7,2 -9,-1 -2,-3 -2,-7 1,-9l105 -74 -85 49c-3,2 -7,1 -9,-2 -2,-3 -1,-7 2,-9l7 -4c-3,1 -7,1 -9,-2 -2,-3 -1,-7 2,-9l80 -58 -80 46c-3,2 -7,1 -9,-2 -2,-3 -1,-7 2,-9l26 -18 -27 16c-3,2 -7,1 -9,-2 -2,-2 -1,-7 2,-9l62 -45 -71 41c-3,2 -6,1 -9,-2 -2,-2 -1,-7 2,-9l74 -57 -93 53c-3,2 -6,1 -8,-2 -2,-3 -2,-7 1,-9l17 -11 -27 15c-3,2 -7,2 -9,-1 -2,-3 -1,-7 2,-9l37 -26 -53 30c-3,2 -6,1 -8,-2 -3,-2 -2,-7 1,-9l60 -45 -88 51c-2,2 -6,1 -8,-2 -2,-3 -2,-7 1,-9l52 -37 -81 46c-3,2 -6,1 -8,-2 -2,-3 -2,-7 1,-9l35 -24 -62 36c-3,2 -7,1 -9,-2 -2,-3 -1,-7 2,-9l73 -55 -126 72c-2,2 -6,2 -8,-1 -2,-3 -2,-7 1,-9l68 -49 -130 75c-3,2 -7,2 -9,-1 -2,-3 -2,-7 1,-9l98 -71 -175 101 0 0c-3,2 -7,1 -9,-2 -2,-3 -1,-7 2,-9l77 -51 -80 46c-3,2 -7,1 -9,-2 -2,-3 -1,-7 1,-9l59 -39 -61 35c-3,2 -7,2 -9,-1 -2,-3 -1,-7 1,-9l79 -59 -85 49c-2,2 -6,1 -8,-2 -3,-2 -2,-6 1,-9l45 -34 -49 28c-3,2 -6,1 -8,-1 -3,-3 -3,-7 0,-10l21 -18 -24 13c-1,2 -4,2 -6,1 -3,-2 -4,-6 -3,-9l2 -3 0 0zm602 310l0 0c2,3 1,7 -2,9l-137 79 -88 56c1,1 2,1 3,3 2,3 1,6 -2,8l-47 33 75 -44c4,-1 7,0 9,3 2,3 1,6 -2,8l-33 23 58 -34c3,-2 7,0 9,3 2,3 1,6 -2,8l-57 40 88 -51c3,-2 7,0 9,3 2,3 1,6 -2,8l-16 11 38 -22c3,-2 7,-1 8,3 2,2 1,6 -1,8l18 -11c4,-2 8,-1 9,3 2,3 1,6 -2,8l-18 13 40 -24c3,-2 7,-1 9,3 2,3 1,7 -2,8l-54 38 85 -49c3,-2 7,-1 8,2 2,3 1,7 -2,9l-11 7 32 -18c3,-2 7,-1 9,2 2,3 1,7 -2,9l-59 42 91 -53c3,-2 7,-1 9,2 2,3 1,7 -2,9l-63 45 97 -56c3,-2 7,-1 9,2 1,3 0,7 -2,9l-7 4 27 -15c3,-2 7,-1 8,2 2,3 1,7 -2,9l-66 48 77 -45c3,-2 7,-1 9,3 2,3 1,7 -2,8l-5 3c3,0 6,1 7,3 2,3 1,7 -2,9l-6 4c3,-1 6,0 8,3 2,3 1,7 -2,8l-22 17 15 -8c3,-2 7,-1 9,2 2,3 1,6 -1,8l-25 24 17 -10c3,-2 7,-1 9,2 2,3 1,6 -1,8l-4 5c2,0 4,1 5,3 1,2 1,4 1,5l-3 10c1,0 2,1 2,2 2,3 1,7 -2,9l-6 4c-2,0 -4,1 -6,0 -3,-1 -5,-4 -4,-8l2 -5 -22 13c-3,1 -6,1 -8,-1 -3,-3 -3,-7 0,-10l2 -2 -21 13c-3,1 -6,1 -8,-1 -3,-3 -3,-7 0,-10l25 -24 -59 34c-3,2 -7,2 -9,-1 -2,-3 -2,-7 1,-9l22 -17 -47 28c-3,1 -7,1 -9,-2 -2,-3 -1,-7 2,-9l6 -4 -26 15c-3,1 -7,1 -9,-2 -2,-3 -1,-7 1,-9l-18 11c-3,1 -7,1 -9,-2 -2,-3 -1,-7 2,-9l67 -48 -102 59c-3,1 -7,1 -9,-2 -2,-3 -1,-7 2,-9l0 -1 6 -4 -26 16c-3,1 -7,1 -9,-2 -2,-3 -1,-7 2,-9l63 -45 -96 56c-3,1 -7,1 -9,-2 -2,-3 -2,-7 1,-9l60 -42 -92 53c-3,2 -7,1 -9,-2 -2,-3 -1,-7 2,-9l11 -8 -31 19c-3,1 -7,1 -9,-2 -2,-3 -1,-7 2,-9l54 -38 -84 49c-3,2 -7,1 -9,-2 -2,-3 -1,-7 2,-9l18 -13 -40 24c-3,2 -7,1 -9,-2 -2,-3 -1,-7 1,-9l-18 11c-3,2 -7,1 -9,-2 -2,-3 -1,-7 2,-9l16 -11 -38 22c-2,2 -6,1 -8,-2 -2,-3 -2,-7 1,-9l57 -40 -87 51 0 0c-3,2 -7,1 -9,-2 -2,-3 -2,-7 1,-9l33 -22 -57 33c-3,2 -7,1 -9,-2 -2,-3 -1,-7 2,-9l47 -33 -75 44 0 0c-3,2 -7,1 -9,-2 -2,-3 -1,-7 2,-9l220 -140 -261 151c-3,2 -7,1 -9,-2 -2,-3 -1,-7 2,-9l1 0 0 0 93 -57 -118 68 0 0c-3,2 -7,1 -9,-2 -2,-3 -1,-7 2,-9l241 -148 -276 159c-3,2 -7,1 -9,-2 -1,-3 -1,-7 2,-9l323 -199 -364 210 0 0c-4,2 -8,1 -9,-2 -2,-3 -1,-7 2,-9l272 -166 -272 157 0 0c-3,2 -7,1 -9,-2 -2,-3 -1,-7 2,-9l327 -200 -320 185c-4,1 -7,0 -9,-3 -2,-3 -1,-7 2,-9l248 -150 -241 139c-3,2 -7,1 -9,-2 -2,-2 -2,-6 1,-9l22 -16 -15 8c-3,2 -7,1 -8,-2 -2,-3 -1,-7 2,-9l103 -60c4,-2 8,0 9,3 2,2 1,6 -1,8l-23 17 654 -377c3,-2 7,-1 8,2 2,3 1,7 -2,9l-248 151 245 -142 1 0 0 0c3,-2 7,-1 9,2 1,3 0,7 -3,9l-327 200 322 -185 0 0 0 0c4,-2 8,-1 9,2 2,3 1,7 -2,9l-272 166 262 -152c3,-2 7,-1 9,3 2,3 1,6 -2,8l-323 200 302 -175 1 0 0 0c3,-2 7,-1 9,2 2,3 1,7 -2,9l-240 148 207 -120c3,-2 7,-1 9,2 2,3 1,7 -2,9l0 0 -94 57 46 -27c3,-1 7,0 9,3 2,3 1,7 -2,9l-47 29zm604 -225c2,1 3,2 4,3 2,3 1,7 -2,9l-137 92 108 -62c3,-2 7,-1 9,2 2,3 1,7 -2,9l-57 37 42 -24c3,-2 7,-1 9,2 1,3 0,7 -2,9l-88 58 75 -44c3,-1 7,0 9,3 2,3 1,7 -2,9l-101 68 89 -52c4,-1 8,0 9,3 2,3 1,7 -2,9l-57 37 50 -28c3,-2 7,-1 8,2 2,3 1,7 -2,9l-24 15 17 -9c3,-2 7,-1 9,2 1,3 0,7 -2,9l-110 78 103 -60c3,-2 7,-1 9,3 2,3 1,6 -2,8l-82 57 76 -44 0 0 0 0c3,-2 7,-1 9,2 2,3 1,7 -2,9l-30 20 24 -14c3,-2 7,-1 9,2 2,3 1,7 -2,9l-86 61 83 -48c4,-2 8,-1 9,2 2,4 1,7 -2,9l-6 4 2 -1c3,-2 7,-1 9,3 1,2 1,6 -2,8l-82 61 83 -48c3,-2 7,-1 8,2 2,3 1,7 -2,9l-62 45 63 -37c3,-2 7,0 9,3 2,3 1,6 -2,8l-20 14 21 -12c3,-2 7,-1 8,2 2,3 1,7 -2,9l-54 39 58 -33c3,-2 7,-1 9,2 2,3 1,7 -2,9l-15 10 18 -10c4,-2 8,-1 9,2 2,3 1,7 -2,9l-36 26 42 -25c3,-2 7,0 9,3 2,3 1,6 -2,8l0 0 6 -3c3,-2 7,-1 9,2 1,3 1,7 -2,9l-48 36 63 -36c3,-2 7,-1 9,2 2,3 1,7 -2,9l-50 39 73 -42c3,-2 7,-1 8,2 2,3 1,7 -1,9l-51 39 85 -49c3,-2 7,-1 8,2 2,3 1,7 -1,9l-29 20 107 -62c0,-2 1,-5 3,-6l137 -94 -108 63c-3,2 -7,1 -9,-2 -1,-3 0,-7 2,-9l57 -38 -41 25c-4,2 -8,1 -9,-3 -2,-3 -1,-6 2,-8l88 -60 -76 44c-3,2 -7,1 -9,-2 -2,-3 0,-7 3,-9l101 -70 -90 53c-3,2 -7,1 -9,-3 -2,-3 -1,-7 2,-9l58 -38 -50 29c-3,2 -7,1 -9,-2 -2,-3 -1,-7 2,-9l24 -16 -16 10c-4,2 -8,0 -9,-3 -2,-3 -1,-7 2,-9l110 -79 -104 61c-3,1 -7,0 -8,-3 -2,-3 -1,-7 2,-9l82 -58 -76 45 0 0 -1 0c-3,2 -7,1 -8,-2 -2,-3 -1,-7 2,-9l30 -20 -25 14c-3,2 -7,1 -9,-2 -2,-3 -1,-7 2,-9l86 -63 -83 49c-3,2 -7,1 -9,-2 -2,-3 -1,-8 2,-9l7 -5 -3 2c-3,2 -7,0 -8,-3 -2,-3 -1,-7 1,-8l83 -62 -83 49c-3,1 -7,0 -9,-3 -2,-3 -1,-7 2,-9l62 -46 -63 38c-3,1 -7,0 -9,-3 -1,-3 -1,-7 2,-9l20 -13 -20 12c-3,1 -7,0 -9,-3 -2,-3 -1,-7 2,-9l54 -40 -58 34c-3,2 -7,1 -9,-2 -2,-3 -1,-7 2,-9l15 -11 -18 11c-3,2 -7,1 -9,-2 -2,-3 -1,-7 2,-9l36 -27 -42 25c-3,2 -7,1 -9,-2 -2,-3 -1,-7 2,-9l0 0 -6 3c-3,2 -7,1 -9,-2 -1,-3 -1,-7 2,-9l48 -37 -63 37c-3,2 -7,1 -9,-2 -2,-3 -1,-7 2,-9l51 -40 -74 43c-3,2 -7,1 -9,-2 -1,-3 -1,-7 2,-9l51 -40 -85 50c-3,2 -7,1 -9,-2 -2,-3 -1,-7 2,-9l29 -21 -112 66zm1452 478c-2,1 -3,0 -4,0 -2,0 -3,0 -5,-1l-1 0c-3,1 -7,-1 -8,-5 -1,-3 1,-6 4,-7l-30 7c-2,1 -4,0 -5,0 -4,0 -7,-2 -8,-5 -1,-4 1,-7 5,-8l99 -27 -133 33c-1,0 -3,0 -4,0 -3,0 -6,-2 -7,-5 -1,-4 1,-7 5,-8l296 -82 -339 84c0,0 -1,0 -2,0l0 0c-3,-1 -5,-3 -5,-5 -1,-4 1,-7 4,-8l103 -27 -102 25c-4,1 -7,-1 -8,-5 -1,-2 0,-4 1,-6l0 0 0 0 0 0 1 0c0,-1 1,-1 2,-2l251 -69c4,0 7,2 8,5l0 0 16 -4c4,-1 7,1 8,5 0,1 0,2 0,3l30 -8c4,-1 7,1 8,4l26 -6c3,-1 7,1 8,5 0,3 -1,6 -4,7l109 -30c0,-1 -1,-2 -1,-3 -1,-4 1,-7 5,-8l21 -5c-1,-1 -1,-2 -1,-3 -1,-3 1,-7 4,-8l4 -1c0,-3 2,-6 5,-7l284 -70c3,-1 7,1 7,5 0,0 1,0 1,0 0,4 -2,7 -5,8l-92 24 90 -22c3,-1 7,1 7,5 1,0 1,1 1,1 0,3 -2,6 -5,7l-331 92 326 -81c3,-1 7,1 8,5 0,1 0,2 0,2 0,3 -2,5 -5,6l-173 47 165 -41c4,-1 7,1 8,5 0,1 0,2 0,3 -1,2 -3,4 -5,5l-99 26 89 -22c3,0 7,2 7,5 1,2 1,4 0,5 -1,2 -3,3 -5,4l-6 2c1,0 3,2 3,4 0,2 0,3 -1,5 -1,1 -2,2 -4,3l-1 0c1,3 -1,7 -4,7l-2 1c1,2 0,5 -2,6 -1,2 -2,3 -4,3l-190 49 163 -38c4,-1 7,1 8,5 1,3 -1,7 -5,8l0 0c0,1 -2,3 -4,3l-253 67 204 -48c3,-1 7,1 8,5 1,3 -2,7 -5,8l-8 1c-1,3 -2,5 -5,5l-248 65c-4,1 -7,-1 -8,-5 -1,-1 -1,-2 0,-3l-51 12c-4,0 -7,-2 -8,-5 0,-1 0,-3 0,-4l-34 9c-4,1 -7,-1 -8,-4 -1,-4 1,-7 4,-8l28 -7 -81 19c-3,0 -7,-1 -8,-5l-13 4c-3,1 -7,-1 -8,-5 0,-3 1,-6 3,-7l-37 9c-1,1 -3,0 -4,0l0 0c-2,0 -5,0 -6,-2l-3 1c-1,0 -2,0 -3,0 -3,0 -5,-2 -6,-5 -1,-2 0,-5 2,-6l-32 7zm316 -275c-2,-1 -4,-3 -4,-5 0,-1 0,-2 0,-3l-6 2c-4,1 -7,-1 -8,-5 -1,0 -1,-1 -1,-1l-6 1c-3,1 -7,-1 -8,-5 0,0 0,-1 0,-1l-7 2c-4,1 -7,-1 -8,-5 0,0 0,0 -1,-1l-7 2c-4,1 -7,-1 -8,-5 0,0 0,-1 0,-1l-11 2c-3,1 -7,-1 -8,-4 0,-1 0,-2 0,-3l-15 4c-3,1 -7,-1 -8,-5 0,-1 0,-2 0,-4l-18 6c-4,1 -7,-1 -8,-5 -1,-3 1,-7 4,-8l15 -4 -54 13c-3,1 -6,0 -7,-3l-10 3c-4,0 -7,-2 -8,-5 -1,-1 -1,-3 0,-4l-29 7c-3,1 -7,-1 -8,-4l-13 4c-4,1 -8,-1 -8,-4 -1,-4 1,-7 4,-8l75 -21 -136 34c-3,0 -5,-1 -7,-3l-11 3c-3,1 -7,-1 -8,-4 -1,-4 1,-7 5,-8l230 -64 -303 75c-3,1 -7,-2 -7,-5 -1,-1 -1,-3 0,-4 0,-2 2,-5 4,-5l226 -62 -218 54c-3,1 -7,-1 -8,-5 0,-1 0,-2 1,-4 0,-2 2,-5 4,-5l310 -86c3,-1 7,1 8,5 0,1 0,2 0,4l31 -8c3,-1 7,1 7,5 1,1 1,2 0,3l23 -6c3,-1 7,1 8,4 0,2 0,4 -1,5l27 -6c3,-1 7,1 7,4 1,1 1,2 0,3l17 -4c4,-1 7,1 8,4 1,4 -1,7 -4,8l-58 16 92 -23c4,0 7,2 8,5l7 -2c3,-1 7,1 8,5 1,3 -1,7 -5,8l-39 11 67 -17c2,-1 5,0 6,2l2 0c3,-1 7,1 8,5 0,1 0,3 -1,5l14 -4c3,-1 6,1 8,4l1 -1c4,-1 7,1 8,5 1,3 -1,7 -4,8l-167 46 193 -48c2,0 5,0 6,2 3,0 6,2 7,5 1,3 -1,7 -5,8l-45 12 63 -16c2,0 4,0 6,2 2,0 4,2 5,4 1,4 -1,7 -5,8l0 1 14 -4c2,-1 5,0 6,2 2,0 4,2 5,4 1,4 -1,7 -5,8l-114 31 94 -22 35 -9c2,-1 4,0 6,1l0 0c2,1 3,2 3,4 1,2 0,5 -2,6l6 -1c3,-1 5,0 7,2 1,1 2,2 3,4 1,3 -1,7 -5,8l-179 48 190 -47c3,0 6,1 7,3 1,1 2,2 2,3 1,4 -1,7 -4,8l-243 67c-4,1 -7,-1 -8,-4 0,-1 -1,-2 0,-2 -3,0 -6,-2 -7,-5 0,-2 0,-4 2,-6l-4 1c-4,1 -7,-1 -8,-4 0,-1 0,-1 0,-1l-1 0c-3,0 -7,-2 -8,-5 0,-1 0,-1 0,-2l-2 1c-3,1 -6,-1 -7,-3 -2,0 -3,0 -5,-1zm-412 137c-4,1 -7,-2 -8,-5 -1,-3 1,-7 4,-8l0 0c4,-1 7,1 8,5 1,3 -1,7 -4,8l0 0zm40 -3c2,0 4,0 5,1 4,-1 7,1 8,5 1,3 -1,7 -5,8l-59 14c-3,1 -7,-1 -8,-4 0,-2 0,-3 1,-5 0,-2 2,-3 4,-4l54 -15zm422 -91c-1,-1 -2,-2 -3,-4 0,-3 2,-7 5,-8l249 -61c3,-1 6,0 8,3 0,1 1,1 1,2 1,4 -1,7 -5,8l-239 66 245 -61c4,-1 7,1 8,4 0,0 1,1 1,1 1,3 -1,7 -5,8l-254 71c-3,1 -7,-1 -8,-5 0,-2 0,-4 1,-6 0,0 -1,-1 -1,-3 -1,-3 1,-6 4,-7 -3,0 -6,-2 -7,-5 0,-1 0,-2 0,-3zm-376 99c2,0 5,0 6,2l2 0c4,-1 7,1 8,4 1,4 -1,7 -5,8l-117 29c-4,1 -7,-1 -8,-4 -1,-2 0,-3 0,-5 1,-2 2,-3 5,-4l109 -30zm58 8c3,-1 7,1 8,4l9 -3c4,0 7,2 8,5 1,4 -1,7 -5,8l-196 49c-3,0 -7,-2 -8,-5 0,-2 0,-3 1,-4 1,-2 2,-4 4,-4l179 -50zm319 -66c0,0 0,0 0,-1 -1,-3 1,-7 4,-8l265 -65c3,-1 7,1 8,5l0 0 0 0c1,3 -2,7 -5,8l-268 73c-3,1 -7,-1 -8,-4 -1,-3 1,-7 4,-8zm-213 -253c1,2 0,4 -1,5 0,4 -2,7 -5,8l-4 1c3,0 5,2 5,4l1 1 26 -7c3,-1 7,1 8,5 0,3 -2,7 -5,8l-253 62c-4,1 -7,-1 -8,-4 -1,-2 -1,-3 0,-4 0,-3 2,-5 5,-6l192 -52 -185 46c-3,0 -7,-2 -8,-5 0,-1 0,-3 0,-4 1,-2 3,-4 5,-5l2 0c-2,-1 -3,-3 -4,-5 0,-1 0,-3 1,-4 0,0 0,-1 0,-2 0,-2 2,-5 5,-5l80 -20 76 -19 -150 35c-3,1 -7,-1 -7,-5 -1,-1 -1,-3 0,-4 0,-3 2,-5 5,-6l30 -7 -24 5c-3,1 -7,-1 -8,-5 0,-1 0,-2 1,-3 0,-3 2,-6 5,-7l98 -25 -92 22c-3,1 -7,-2 -8,-5 0,-2 0,-3 1,-4 0,-3 2,-6 5,-7l220 -58c4,-1 7,1 8,5 1,3 0,6 -3,7 0,1 1,2 1,3 1,3 -1,7 -5,7l0 0c1,1 2,3 2,4 1,2 0,5 -2,6 0,1 0,1 0,1 1,3 -1,7 -4,8 1,1 2,1 2,2 0,3 0,5 -2,7l0 0c1,3 -1,7 -4,8l-2 0c1,1 3,2 3,4 1,2 0,3 0,5 0,1 -1,2 -1,3 0,2 -1,4 -2,6zm414 -72c-4,1 -7,-1 -8,-4 -1,-4 1,-7 5,-8l31 -8c4,-1 7,1 8,5 0,1 0,1 0,2 1,3 -1,6 -4,7l-23 6c-1,1 -3,1 -5,-1l-4 1zm-581 -120c-4,1 -7,-1 -8,-4 -1,-4 1,-7 5,-8l10 -3c4,0 7,2 8,5 1,4 -1,7 -5,8l-10 2z"/>
   <path class="fil1" d="M135 454l0 -389 81 0c61,0 104,2 129,8 25,6 47,15 66,28 24,18 43,40 56,66 12,27 19,58 19,92 0,35 -7,65 -19,92 -13,27 -32,49 -56,66 -19,13 -41,23 -65,28 -24,6 -61,9 -112,9l-18 0 -81 0zm105 -87l18 0c42,0 72,-9 91,-26 19,-17 29,-44 29,-82 0,-37 -10,-64 -29,-81 -19,-18 -49,-26 -91,-26l-18 0 0 215z"/>
   <path id="1" class="fil1" d="M550 65l106 0 0 189c0,28 0,48 2,60 1,12 4,22 7,30 4,10 11,18 21,23 10,5 23,8 37,8 15,0 27,-3 37,-8 10,-5 17,-13 21,-23 4,-8 6,-18 7,-30 2,-12 3,-32 3,-60l0 -27 0 -162 105 0 0 205c0,43 -2,74 -8,95 -5,20 -13,37 -26,52 -13,15 -31,27 -54,35 -24,8 -52,12 -85,12 -33,0 -61,-4 -84,-12 -23,-8 -42,-20 -55,-35 -12,-15 -21,-32 -26,-52 -5,-21 -8,-52 -8,-95l0 -40 0 -165z"/>
   <path id="2" class="fil1" d="M1162 310l0 -81 208 0c0,2 0,5 0,9 1,3 1,7 1,14 0,67 -18,118 -54,155 -35,37 -85,56 -149,56 -31,0 -59,-5 -84,-14 -24,-10 -46,-24 -66,-44 -18,-18 -32,-40 -43,-66 -10,-25 -15,-52 -15,-80 0,-29 5,-55 15,-80 10,-24 25,-46 44,-66 20,-18 42,-33 68,-43 25,-9 52,-14 81,-14 38,0 72,7 101,22 30,15 54,38 74,68l-92 44c-11,-15 -23,-27 -37,-34 -13,-7 -29,-11 -46,-11 -32,0 -57,11 -75,32 -18,21 -27,50 -27,87 0,37 9,66 27,87 18,21 43,32 75,32 27,0 50,-7 68,-20 18,-13 28,-31 31,-53l-105 0z"/>
   <path id="3" class="fil1" d="M1538 308l106 0 -40 -128c-1,-4 -3,-10 -5,-19 -2,-9 -5,-20 -8,-33 -3,9 -5,18 -7,27 -2,9 -4,17 -7,25l-39 128zm-148 146l134 -389 133 0 134 389 -105 0 -20 -70 -151 0 -20 70 -105 0z"/>
   <path id="4" class="fil1" d="M1999 454l0 -389 111 0c43,0 73,1 90,5 17,4 32,11 44,21 14,10 25,24 33,40 7,17 11,35 11,55 0,30 -7,54 -22,73 -15,19 -37,32 -65,38l106 157 -120 0 -89 -153 0 153 -99 0zm99 -206l20 0c23,0 39,-3 50,-11 10,-8 16,-20 16,-37 0,-19 -5,-33 -15,-42 -10,-8 -26,-12 -50,-12l-21 0 0 102z"/>
   <polygon id="5" class="fil1" points="2347,454 2347,65 2586,65 2586,150 2451,150 2451,217 2578,217 2578,301 2451,301 2451,367 2586,367 2586,454 "/>
   <path id="6" class="fil1" d="M2673 328c16,18 31,31 47,40 15,9 30,13 46,13 14,0 25,-4 35,-11 9,-8 13,-17 13,-29 0,-13 -4,-23 -12,-30 -7,-7 -25,-14 -53,-22 -38,-10 -65,-23 -81,-40 -16,-16 -24,-39 -24,-68 0,-37 13,-67 38,-91 25,-23 57,-35 97,-35 21,0 41,3 61,9 19,6 37,14 54,26l-33 76c-12,-10 -24,-18 -37,-23 -13,-5 -25,-8 -38,-8 -12,0 -23,3 -31,9 -8,6 -12,14 -12,24 0,10 4,17 11,23 7,6 20,12 40,17l5 1c43,12 72,25 85,39 10,9 17,21 22,34 4,14 7,28 7,45 0,41 -14,74 -41,99 -27,25 -63,38 -108,38 -28,0 -52,-5 -74,-14 -23,-9 -44,-24 -65,-43l48 -79z"/>
   <path id="7" class="fil1" d="M3075 308l105 0 -39 -128c-1,-4 -3,-10 -5,-19 -2,-9 -5,-20 -8,-33 -3,9 -5,18 -7,27 -2,9 -5,17 -7,25l-39 128zm-149 146l135 -389 132 0 135 389 -106 0 -19 -70 -151 0 -20 70 -106 0z"/>
   <path class="fil2" d="M1491 1698c-31,-272 -153,-408 -366,-408 -107,0 -199,51 -276,151 -77,101 -115,223 -114,367 1,141 37,261 109,360 72,99 158,149 260,149 86,0 168,-23 246,-68 90,-54 148,-127 173,-218l108 146c-44,116 -115,204 -212,266 -88,58 -186,87 -294,87 -151,0 -281,-69 -388,-208 -107,-139 -161,-310 -161,-514 0,-203 54,-374 162,-516 98,-128 214,-198 348,-209l82 0c141,9 254,60 337,151 109,118 164,302 164,551 0,30 -1,62 -2,95l-777 0 0 -180 599 0 2 -2zm239 -1069l0 1 -194 36 0 16 0 1 0 10 0 17 0 9 0 17 0 4c-51,7 -90,17 -129,27 -47,12 -94,25 -161,31 4,-5 7,-12 7,-19 0,-7 -4,-14 -10,-19 -5,-5 -13,-9 -23,-9 -14,-1 -30,5 -42,15 -13,9 -21,23 -21,36l0 2c-11,0 -22,0 -33,0 -139,0 -210,-18 -279,-35l1 -3c10,-15 17,-34 18,-52 0,-14 -4,-29 -8,-43 -2,-6 -5,-12 -8,-18 -1,-2 -4,-7 -8,-7 -6,1 -12,5 -15,9 -5,5 -9,11 -12,18 -7,12 -11,26 -13,40 -1,11 0,21 1,32 0,4 0,8 1,13 -47,-12 -101,-24 -177,-28l0 0 0 0 -3 -1 -7 0c-16,-1 -49,-4 -96,-6 -45,-1 -83,-1 -113,2 -41,3 -76,11 -105,23 -66,27 -119,79 -160,157 -41,78 -62,165 -62,259l0 1346 160 0 0 -986 353 0 0 -211 -353 0 0 -85c0,-20 5,-50 14,-91 9,-41 18,-70 27,-86 43,-81 117,-121 223,-121l49 0c4,0 9,0 13,0l59 2c93,5 151,18 208,33l1 11c2,8 3,16 3,23 1,11 -1,21 -9,29 -7,8 -17,12 -28,12 -8,0 -22,-4 -22,-12 7,2 17,-1 21,-6 8,-8 8,-21 1,-29 -12,-15 -34,-10 -42,6 -7,16 3,34 18,42 15,9 35,9 49,0 15,-8 21,-24 21,-39 0,-11 -3,-23 -5,-34l0 -1c71,18 143,36 284,36 11,0 22,0 33,0l0 44c3,0 5,0 8,1 2,-14 2,-30 14,-46 108,-4 170,-20 232,-36 15,-4 30,-8 45,-11 1,1 3,2 4,3 6,4 14,7 22,7 14,0 30,-5 41,-14 5,-3 10,-7 13,-12 43,-6 93,-10 159,-10 141,0 212,19 283,37 47,12 93,24 158,31 1,1 2,2 3,2 6,5 14,9 23,10 11,1 24,-2 35,-7 21,1 43,1 68,1 144,0 216,-18 288,-37l5 -1 0 49c2,0 5,0 8,1 2,-15 2,-33 18,-51 3,-3 5,-5 8,-8 60,-14 128,-27 244,-27l4 0 0 21 0 7 0 40 0 7 0 79 0 989c0,96 21,183 62,261 41,77 94,129 160,155 29,12 64,20 105,24 30,2 67,2 114,0 62,-1 97,-2 103,-2l0 -205c-14,0 -34,0 -60,0 -25,0 -45,0 -59,0 -107,0 -182,-41 -224,-123 -8,-17 -17,-45 -27,-86 -9,-40 -13,-71 -13,-92l0 -694 351 0 0 -209 -351 0 0 -371 -161 0 0 0 -4 0c-78,0 -135,6 -182,14 -1,-7 -5,-13 -10,-17 -6,-5 -14,-9 -23,-9 -14,-1 -30,5 -43,15 -11,9 -18,20 -20,32l-9 2c-64,17 -128,33 -245,36 0,-1 0,-3 0,-5 0,-8 -2,-16 -4,-23 2,-9 4,-18 4,-28 0,-18 -9,-38 -22,-54 -10,-12 -25,-25 -40,-39 -14,-12 -16,-27 -17,-38 -2,0 -5,0 -7,0l0 187c-111,-3 -174,-20 -236,-36 -21,-5 -42,-11 -65,-16l0 -140 0 -1 0 -16 -187 35zm-917 131l-2 0c-4,-21 -2,-41 8,-60 3,-7 9,-15 18,-18 10,-4 18,6 17,15l0 0c0,26 -20,48 -41,63zm2027 162l-4 0c-109,0 -177,11 -234,24 7,-7 14,-14 20,-21 7,-8 12,-17 16,-26 50,-9 111,-16 198,-16l4 0 0 17 0 7 0 15zm-282 35l-9 2c-71,19 -142,37 -284,37 -21,0 -40,0 -58,-1 11,-9 18,-20 18,-33l0 -6c13,0 26,0 40,0 144,0 216,-18 288,-37l5 -1 0 39zm-427 32c-61,-7 -105,-18 -149,-30 -71,-18 -142,-36 -283,-37 4,-2 7,-4 11,-6 12,-9 20,-20 20,-33l0 0c42,1 77,4 108,8 5,2 10,3 16,3 2,0 4,0 6,0 46,7 82,16 118,25 49,13 98,25 170,32 -11,8 -18,18 -18,29 0,3 0,6 1,9zm434 -73c18,-5 36,-9 56,-13 -2,2 -3,4 -5,6 -12,15 -33,27 -51,27l0 -20zm275 -41l-4 0c-85,0 -145,7 -195,16 2,-6 3,-13 3,-20 0,-7 -1,-14 -2,-22 49,-9 109,-16 194,-16l4 0 0 17 0 7 0 18zm-214 19c-22,4 -41,9 -61,14l0 -41c22,-6 44,-11 69,-16 0,4 0,8 0,13 0,10 -3,20 -8,30zm-68 16l-9 2c-66,17 -132,34 -254,37 6,-13 12,-27 13,-42 116,-4 180,-20 245,-37l5 -1 0 41zm-268 39c-8,0 -16,0 -25,0 -14,0 -27,0 -40,0l0 -42c13,0 26,0 40,0 13,0 24,0 36,0l0 0c0,12 -6,31 -11,42zm-132 -4c-76,-7 -126,-20 -176,-33 -32,-8 -65,-16 -103,-23 6,-2 11,-5 16,-9 10,-7 18,-15 21,-25 22,5 42,10 62,15 64,16 127,33 240,36l0 37c-6,-5 -16,-7 -27,-7 -11,0 -23,3 -33,9zm682 -119l-4 0c-86,0 -146,7 -196,16 -4,-14 -10,-28 -16,-38 53,-11 117,-20 212,-20l4 0 0 18 0 8 0 16zm-208 18c-24,4 -45,10 -67,15l0 -41c17,-5 34,-9 53,-13 5,10 11,24 14,39zm-74 17l-9 2c-63,17 -127,33 -241,36 0,-12 -2,-20 -7,-29 1,-4 2,-8 3,-12 118,-3 183,-20 249,-37l5 -1 0 41zm-258 39c-11,0 -22,0 -35,0 -14,0 -27,0 -40,-1l0 -42c13,1 26,1 40,1l7 0c7,5 13,9 17,13 9,10 11,18 11,29zm-82 -1c-111,-3 -174,-20 -236,-36 -21,-5 -42,-11 -65,-16l0 0 0 -41c21,5 41,10 61,15 64,16 127,33 240,36l0 42zm74 -41l4 0 0 5 0 0c-1,-2 -3,-3 -4,-5l0 0zm548 -81l-4 0c-97,0 -162,9 -215,20 -2,-2 -2,-3 -3,-5 -2,1 -4,2 -6,2l2 4c-17,4 -33,8 -49,12l0 -22c6,4 16,5 27,5 13,-1 29,-6 41,-15 10,-7 18,-17 20,-27 47,-8 104,-14 183,-14l4 0 0 40zm-282 35l-9 2c-64,17 -128,33 -245,36l0 -2c0,-7 -2,-15 -4,-22 1,-5 2,-10 3,-15 119,-3 184,-20 250,-37l5 -1 0 39zm-262 38c-4,1 -8,1 -11,1 -12,-12 -26,-24 -38,-34 -2,-1 -4,-4 -6,-6 8,0 16,0 24,0 4,0 7,0 10,0l1 1c10,12 19,24 20,38zm-35 1c-12,0 -24,0 -36,-1l0 -22c9,5 22,14 34,22l2 1zm-43 -1c-111,-4 -174,-20 -236,-36 -21,-5 -42,-11 -65,-16l0 -39c21,5 41,10 61,15 64,16 127,33 240,36l0 40zm74 -39l4 0c0,2 -1,4 -1,6l0 0c-1,-2 -1,-4 -3,-6zm4 -7l-8 0c-2,-3 -4,-6 -6,-8 -10,-12 -25,-25 -40,-38 -14,-12 -16,-27 -17,-35 18,10 38,23 51,37 11,13 19,25 20,41 0,1 0,2 0,3zm-28 0l-3 0c-10,0 -20,0 -30,0 -5,-9 -9,-20 -10,-28 15,8 31,17 43,28zm-732 -57l0 40c-51,7 -90,17 -129,27 -50,13 -101,26 -178,33 -4,-9 -8,-16 -12,-22 -2,1 -4,2 -5,2 2,6 6,12 10,20 -18,2 -37,3 -57,3l0 -30c5,5 15,6 26,6 13,-1 29,-7 41,-15 2,-2 4,-3 6,-5 73,-6 123,-19 173,-32 38,-10 76,-20 125,-27zm-379 103c-11,1 -22,1 -33,1 -142,0 -213,-19 -284,-37 -7,-2 -15,-4 -22,-6l-1 -1c0,-2 -2,-7 0,-8 4,-3 8,-6 11,-10 4,-4 9,-9 12,-14 71,18 143,36 284,36 11,0 22,0 33,0l0 39zm-348 -44l-1 0 1 -1 0 1zm-39 -9c-39,-8 -84,-15 -143,-18l0 -40c77,4 129,15 176,27l1 0c0,2 -1,2 -2,3 -1,2 -3,3 -5,4 -9,8 -18,16 -27,24zm766 -3l0 42c-51,7 -90,17 -129,27 -47,13 -95,25 -164,32 -1,-15 -6,-29 -11,-41 77,-7 128,-20 179,-33 38,-10 76,-20 125,-27zm-303 102c-20,1 -43,3 -68,3l0 -42c21,0 41,-1 60,-3 5,13 9,27 8,42zm-76 4c-11,0 -22,0 -33,0 -117,0 -186,-13 -246,-27 -2,-5 -5,-10 -9,-15 -11,-14 -28,-20 -47,-19 -1,-7 -2,-15 -3,-22l0 -1c6,2 12,3 18,5 71,18 143,37 287,37 11,0 22,0 33,0l0 42zm-363 -48c-10,-3 -20,-5 -30,-7 10,-12 23,-24 36,-33 4,0 7,1 10,2l2 14c1,3 1,6 2,10 0,1 1,2 -1,3 -1,0 -2,1 -3,1 -4,2 -8,4 -12,6 -1,1 -3,3 -4,4zm-57 -12c-31,-5 -67,-10 -110,-12l0 -42c56,3 99,10 137,17 -3,3 -5,5 -7,8 -8,9 -15,19 -20,29zm799 3l0 42c-51,7 -90,17 -129,27 -50,13 -100,27 -176,33 8,-13 13,-27 13,-41l0 -2c70,-7 119,-19 167,-32 38,-10 76,-20 125,-27zm-325 103c-14,1 -30,2 -46,3l0 -42c25,-1 47,-2 68,-4 -2,14 -8,28 -18,39 -1,1 -2,3 -4,4zm-54 3c-11,0 -22,0 -33,0 -120,0 -189,-13 -250,-28 3,-5 5,-11 6,-17 2,-7 2,-15 0,-23 60,14 129,26 244,26 11,0 22,0 33,0l0 42zm-296 -31c-7,-2 -14,-4 -21,-6l-8 -2 -6 -43 11 3 9 2c9,6 15,15 17,26 2,6 1,13 -2,20zm-37 -10c-11,-3 -23,-5 -34,-8 -1,-15 12,-30 28,-33l0 0c2,14 4,27 6,41zm-46 -11c-10,-2 -20,-4 -31,-6l0 -1c0,-14 5,-27 12,-38 10,2 20,4 29,6 -3,3 -6,7 -8,12 -4,8 -5,18 -2,27zm-45 -9c-31,-5 -65,-9 -106,-11l0 -42c42,3 77,7 108,12 -2,3 -2,7 -3,10 -2,10 -2,21 1,31zm803 5l0 7c-4,-3 -8,-5 -14,-5 4,-1 9,-2 14,-2zm-55 9c-3,2 -7,4 -10,7 -11,8 -20,20 -20,31 0,3 0,6 1,8 -15,4 -30,8 -45,11 -59,16 -119,31 -221,36 12,-13 26,-26 35,-37 2,-2 3,-4 4,-5 81,-7 133,-20 186,-34 23,-6 45,-12 70,-17zm-324 94c-11,0 -22,0 -33,0 -142,0 -213,-18 -284,-37l-1 0c0,-3 -1,-6 -1,-9 4,-2 8,-4 12,-6 7,-5 14,-10 19,-17 62,16 133,29 255,29 11,0 22,0 33,0l0 40zm-327 -39l-10 -3c3,0 6,-1 10,-1l0 4zm-59 -15c-40,-8 -85,-15 -144,-18l0 -40c42,3 77,7 108,12 1,4 3,8 4,12 7,14 18,26 32,34zm-23 -43c12,2 22,4 33,6 2,5 5,9 9,13 4,3 7,6 12,8 1,1 4,2 6,2 1,-1 2,-3 1,-4 -2,-2 -5,-3 -7,-4 -1,-1 -3,-3 -5,-4 -2,-2 -4,-5 -5,-8 11,3 22,5 33,8 1,6 1,13 2,19 1,2 1,4 1,6 0,2 2,4 -1,4 -3,1 -6,1 -9,2 -33,2 -64,-19 -70,-48zm85 19l4 1c7,2 14,4 21,6 -5,7 -12,14 -21,18l0 0 -4 -25zm332 38c13,-1 25,-1 37,-2 -11,9 -25,15 -37,15l0 -13zm376 -25c2,-4 3,-8 3,-13l0 -27c30,-3 63,-6 102,-8 -5,7 -9,14 -9,22 0,7 3,13 9,18l1 0c-41,1 -76,4 -106,8zm3 -47l0 -42c41,-5 89,-9 151,-9 9,0 18,1 27,1l0 31c-5,-5 -15,-6 -25,-6 -13,0 -28,5 -39,14 -2,1 -3,2 -4,3 -43,1 -78,4 -110,8zm0 -49l0 -42c41,-5 89,-9 151,-9 9,0 18,0 27,1l0 41c-9,0 -18,0 -27,0 -62,0 -110,4 -151,9zm0 -49l0 -40c41,-5 89,-9 151,-9 9,0 18,0 27,1l0 39c-9,0 -18,0 -27,0 -62,0 -110,3 -151,9zm0 -47l0 -5 178 -33 0 29c-9,0 -18,0 -27,0 -62,0 -110,4 -151,9zm186 137l0 -42c42,1 77,4 108,7 -9,8 -15,18 -15,28 0,5 1,9 4,13 -28,-3 -60,-5 -97,-6zm0 -49l0 -42c77,2 131,9 177,19l0 25c-5,-4 -14,-6 -25,-6 -11,0 -24,5 -35,12 -33,-4 -71,-7 -117,-8zm0 -50l0 -39c77,2 131,9 177,19l0 39c-46,-9 -100,-17 -177,-19zm0 -46l0 -32 0 0 177 -34 0 84c-46,-9 -100,-17 -177,-18zm-186 -49l0 0 178 -35 0 10 0 0 0 0 -178 34 0 -9zm0 26l0 0 178 -34 0 10 0 0 0 0 -178 34 0 -10zm186 -26l0 0 0 -9 0 -1 177 -33 0 9 -177 34zm177 -60l0 0 -177 34 0 -10 0 -1 177 -32 0 9zm318 50l0 0c18,10 38,22 51,37 11,13 19,26 20,41 0,4 0,10 -1,15 0,0 0,1 0,1 -3,-8 -8,-15 -13,-21 -10,-12 -25,-25 -40,-38 -14,-12 -16,-27 -17,-35 0,0 0,0 0,0zm-479 1838l0 -234 691 0c40,0 75,-19 104,-57 29,-39 44,-85 44,-141 0,-56 -15,-102 -43,-141 -29,-38 -64,-57 -105,-57l-419 0c-109,0 -190,-64 -244,-191 -26,-62 -39,-128 -39,-198 0,-107 27,-199 82,-275 54,-77 120,-115 198,-115l704 0 0 227 -698 0c-33,0 -62,16 -85,48 -24,32 -36,70 -36,116 0,46 12,86 36,118 23,31 52,47 85,47l427 0c122,0 213,71 271,214 27,66 41,136 41,211 0,127 -31,229 -94,309 -62,79 -137,119 -227,119l-693 0z"/>
  </g>
 </g>
</svg>
