<?xml version="1.0" encoding="UTF-8"?>
<!DOCTYPE svg PUBLIC "-//W3C//DTD SVG 1.1//EN" "http://www.w3.org/Graphics/SVG/1.1/DTD/svg11.dtd">
<!-- Creator: CorelDRAW X7 -->
<svg xmlns="http://www.w3.org/2000/svg" xml:space="preserve" width="2.5398mm" height="2.5399mm" version="1.1" style="shape-rendering:geometricPrecision; text-rendering:geometricPrecision; image-rendering:optimizeQuality; fill-rule:evenodd; clip-rule:evenodd"
viewBox="0 0 36 36"
 xmlns:xlink="http://www.w3.org/1999/xlink">
 <defs>
  <style type="text/css">
   <![CDATA[
    .fil0 {fill:url(#id0)}
   ]]>
  </style>
  <linearGradient id="id0" gradientUnits="userSpaceOnUse" x1="-0" y1="18.2037" x2="36.4074" y2="18.2037">
   <stop offset="0" style="stop-opacity:1; stop-color:#C8C8C8"/>
   <stop offset="1" style="stop-opacity:1; stop-color:#969697"/>
  </linearGradient>
 </defs>
 <g id="Layer_x0020_1">
  <metadata id="CorelCorpID_0Corel-Layer"/>
  <path class="fil0" d="M3 0l30 0c2,0 3,1 3,3l0 30c0,2 -1,3 -3,3l-8 0c0,0 0,0 0,0l0 -13c0,0 0,-1 0,-1l5 0 1 -5 -6 0c0,0 0,0 0,0l0 -4c0,-2 1,-2 4,-2l2 0 0 -5c-1,0 -3,0 -4,0l-1 0c-3,0 -5,1 -6,4 0,1 -1,2 -1,3l0 4c0,0 0,0 0,0l-4 0 0 5 4 0c0,0 0,1 0,1l0 13c0,0 0,0 0,0l-16 0c-2,0 -3,-1 -3,-3l0 -30c0,-2 1,-3 3,-3z"/>
 </g>
</svg>
