<?xml version="1.0" encoding="UTF-8"?>
<!DOCTYPE svg PUBLIC "-//W3C//DTD SVG 1.1//EN" "http://www.w3.org/Graphics/SVG/1.1/DTD/svg11.dtd">
<!-- Creator: CorelDRAW X7 -->
<svg xmlns="http://www.w3.org/2000/svg" xml:space="preserve" width="10.7578mm" height="10.7369mm" version="1.1" style="shape-rendering:geometricPrecision; text-rendering:geometricPrecision; image-rendering:optimizeQuality; fill-rule:evenodd; clip-rule:evenodd"
viewBox="0 0 225 225"
 xmlns:xlink="http://www.w3.org/1999/xlink">
 <defs>
  <style type="text/css">
   <![CDATA[
    .fil0 {fill:#156A3C;fill-rule:nonzero;fill-opacity:0.501961}
   ]]>
  </style>
 </defs>
 <g id="Layer_x0020_1">
  <metadata id="CorelCorpID_0Corel-Layer"/>
  <path class="fil0" d="M174 85c0,2 0,4 0,7 0,10 -4,21 -12,29 -4,4 -8,7 -13,9 -4,1 -9,2 -14,3 0,0 1,0 1,0 0,1 -1,2 -2,3l-7 8 -6 6c-2,1 -3,2 -5,2 -1,0 -2,-1 -4,-1l-83 73 -1 1 -1 -1 -26 -26 -1 -1 1 -1 74 -83c-1,-1 -1,-3 -1,-4 0,-1 0,-3 2,-4l5 -6 8 -8c1,-1 2,-1 3,-1 0,0 1,0 1,0 0,-5 1,-9 3,-14 2,-4 4,-8 8,-12 0,0 0,0 0,1 0,1 0,1 1,2 -3,3 -5,7 -7,10 -1,5 -2,10 -2,14l38 39c5,0 9,-1 14,-3 4,-2 9,-5 12,-8 8,-8 11,-18 11,-27 0,-2 0,-4 0,-5 1,-1 2,-2 3,-2zm-86 -67l16 13c4,3 10,8 13,11 1,1 1,1 2,2l15 12c12,9 7,8 20,6l61 -10 0 0 1 -1 -2 2 0 0 2 -2 1 0 0 14c-4,1 -5,3 -5,6 0,2 2,3 2,4l-2 11c-1,1 -2,5 -2,8 -1,4 -2,4 3,4l8 0c4,0 5,1 4,-3 -1,-1 -1,-2 -1,-3l-4 -17c2,-1 3,-3 3,-6 -1,-2 -2,-4 -5,-4l0 -14 0 0 2 0c3,-1 2,-1 -1,-3 -2,-1 -4,-3 -5,-4 -1,-1 -2,-2 -3,-3 -2,-1 -3,-2 -4,-3 -1,-1 -1,-1 -2,-2l-10 -8c0,0 -1,0 -2,-1 0,-1 -1,-1 -2,-2 -1,-1 -2,-2 -3,-3 -3,-2 -13,-11 -20,-16 -9,-7 -6,-7 -17,-5 -12,2 -34,6 -37,7 -1,0 -2,0 -3,0l-9 2c-2,0 -7,1 -12,1 -10,2 -9,1 -2,7zm50 65c9,2 21,3 29,0 13,-3 11,-6 15,-21 -1,-1 -8,1 -10,1l-20 3c-13,2 -7,4 -18,-4l-7 -7c-1,0 -1,-1 -2,-1 -1,-1 -1,-1 -2,-2 -1,-1 -1,-1 -2,-1 -2,-2 -9,-8 -10,-9 -1,4 -4,15 -4,17 0,1 0,2 1,3 0,0 0,0 0,1 1,2 4,5 6,7 6,6 16,10 24,13zm-66 54l11 11 2 -1 0 0c0,-1 0,-1 0,-1 0,0 0,0 0,0l-10 -11c0,0 -1,0 -1,0 0,0 0,0 0,0l0 0 -2 2zm13 13l1 1 -1 1 -9 9 -1 1 0 -1 -10 9c0,1 -1,1 -2,1 -1,0 -2,0 -3,-1l-10 -10 0 0c-1,-1 -1,-2 -1,-2 0,-1 0,-2 1,-3l0 0 9 -9 0 -1 1 -1 8 -9 1 -1 1 1 2 -2 0 0c0,0 1,-1 2,-1 1,0 2,1 3,1l10 11c1,0 1,1 1,2 0,1 0,2 -1,3l0 0 -2 1zm-12 9l-11 -11 -10 9 0 0c0,0 0,0 0,1 0,0 0,0 0,0l0 0 10 10c0,0 1,0 1,0 0,0 0,0 0,0l10 -9zm8 -9l-11 -11 -6 7 11 11 6 -7zm51 -18l-39 -39c0,0 0,0 -1,0 0,0 -1,0 -1,0l-6 7 41 41 6 -7c0,0 1,-1 1,-1 0,0 -1,-1 -1,-1zm-19 16c1,0 2,1 3,1 1,0 2,-1 3,-1l5 -5 -41 -41 -5 5c-1,0 -1,1 -1,2 0,1 0,2 1,3l0 0 35 36 0 0zm-3 1l-33 -34 -73 82 24 24 82 -72z"/>
 </g>
</svg>
