<?xml version="1.0" encoding="UTF-8"?>
<!DOCTYPE svg PUBLIC "-//W3C//DTD SVG 1.1//EN" "http://www.w3.org/Graphics/SVG/1.1/DTD/svg11.dtd">
<!-- Creator: CorelDRAW X7 -->
<svg xmlns="http://www.w3.org/2000/svg" xml:space="preserve" width="8.2931mm" height="7.3349mm" version="1.1" style="shape-rendering:geometricPrecision; text-rendering:geometricPrecision; image-rendering:optimizeQuality; fill-rule:evenodd; clip-rule:evenodd"
viewBox="0 0 89 79"
 xmlns:xlink="http://www.w3.org/1999/xlink">
 <defs>
  <style type="text/css">
   <![CDATA[
    .fil0 {fill:url(#id0)}
   ]]>
  </style>
  <linearGradient id="id0" gradientUnits="userSpaceOnUse" x1="0.0010707" y1="39.2678" x2="88.7939" y2="39.2678">
   <stop offset="0" style="stop-opacity:1; stop-color:#56AF3A"/>
   <stop offset="1" style="stop-opacity:1; stop-color:#B7CD1B"/>
  </linearGradient>
 </defs>
 <g id="Layer_x0020_1">
  <metadata id="CorelCorpID_0Corel-Layer"/>
  <path class="fil0" d="M45 55l27 -5c1,0 2,0 2,1l2 15c0,1 0,1 -1,2l-27 4c-1,0 -2,0 -2,-1l-2 -15c0,-1 0,-1 1,-1zm-31 5l-1 1c-2,2 -6,5 -7,7 4,-1 8,-2 11,-2 0,0 0,0 1,0 6,-2 15,-2 17,2 2,3 1,6 -2,7 -1,1 -3,1 -4,2 11,0 20,-2 29,-3 9,-2 18,-3 27,-2 1,0 3,2 4,2 0,0 0,0 0,0l-3 0c-8,-2 -19,0 -28,2 -10,1 -20,3 -33,2 -2,0 -3,0 -4,0 -2,0 -4,0 -5,0l0 0c-6,0 -11,-1 -14,-3 -1,0 -1,-1 -2,-2 0,-1 0,-2 1,-2 0,-1 1,-2 2,-2 1,-4 6,-7 9,-10l1 0c-1,-1 0,-2 0,-2l4 -5 -2 -2 0 0 0 -1 25 -28c0,0 0,-1 0,-1 0,-1 0,-1 0,-2l2 -1 0 0c0,-1 1,-3 4,-5l0 0 0 0c1,-3 2,-6 4,-8 3,-2 6,-4 10,-4 4,0 7,2 10,4 3,3 4,6 4,10 0,4 -1,7 -4,10 -2,2 -6,4 -9,4l0 0c0,0 0,0 0,0 0,0 0,1 -1,1l-2 3 -1 1c1,6 0,12 1,19l-1 0 0 0 -1 0c-1,-2 -4,-8 -8,-14l0 0 -24 21 0 0 0 0 -3 -3 -5 4c-1,0 -1,0 -2,0zm-9 10c0,2 1,3 4,4 -2,-1 -1,-3 1,-5 0,0 1,0 1,0 -1,0 -3,0 -5,1 0,0 -1,0 -1,0zm1 5c-2,-1 -3,-3 -3,-4 0,0 -1,0 -1,1 0,0 0,0 0,0 0,1 1,1 1,2 1,0 2,0 3,1zm13 1c3,0 4,-1 5,-2 1,0 2,-1 2,-2 0,-1 -1,-2 -2,-2 -1,-1 -4,-2 -7,-2 -3,1 -5,2 -6,3 -1,1 -1,1 0,2 1,1 4,2 8,3zm9 -4c0,1 -1,2 -2,3 2,0 5,-1 6,-1 2,-2 3,-3 1,-5 -1,-3 -6,-3 -11,-2 1,0 2,1 3,1 2,1 3,3 3,4zm29 -21c-2,-9 -2,-14 -4,-17 0,0 0,0 0,0l-2 2c2,6 4,11 6,15zm-6 -16l0 0 1 -2 -2 -2 0 -1c0,2 1,3 1,5zm-1 -5l-1 -1 4 4 0 0c1,0 1,0 1,0 0,0 1,0 1,0l2 -2 -9 -8c0,2 1,5 2,7zm-2 -9l0 0 9 10 3 -3c0,0 0,0 0,0 0,0 0,0 0,0l-14 -14c1,3 1,5 2,7zm-2 -8l0 0c0,0 0,0 0,0l0 0zm2 24c-2,-5 -4,-10 -6,-13l-1 -2 -25 28 8 8 24 -21zm-6 -15c-1,-2 -1,-3 -1,-3 0,0 0,0 0,0l0 0c0,0 0,1 0,1 0,0 0,1 0,1l0 0 1 1 0 0zm-1 -3c0,-1 0,-1 0,-1 0,0 0,0 0,1zm0 -1c0,0 0,0 0,0 0,0 0,0 0,0zm0 0c0,0 0,0 0,0 0,0 0,0 0,0zm0 0c0,0 0,0 0,0 0,0 0,0 0,0zm19 9l0 0c4,0 7,-2 9,-4 3,-2 4,-6 4,-9 0,-4 -1,-7 -4,-9 -2,-3 -5,-4 -9,-4 -3,0 -7,1 -9,4 -2,2 -4,5 -4,9l13 13zm-21 2l4 4 1 0 0 0c0,0 0,0 0,0 0,-1 0,-1 0,-1l-4 -3c0,0 0,0 0,0 0,0 0,0 0,0l0 0 -1 0zm5 5l0 0 0 1 -3 2 -1 1 0 0 -3 3c0,0 -1,0 -1,0 0,0 -1,0 -1,0l-3 -4 0 0c-1,0 -1,0 -1,-1 0,0 0,0 1,0l0 0 3 -4 0 0 0 0 3 -3 0 0 0 0 1 -1 0 0c0,0 1,0 1,0 0,0 1,0 1,0l3 4c0,0 1,0 1,1 0,0 -1,0 -1,0l0 0 0 1zm-5 3l-3 -4 -4 3 0 0c0,0 0,0 0,0 0,0 0,1 0,1l0 0 4 3c0,0 0,0 0,0 0,0 0,0 0,0l3 -3zm3 -3l-4 -4 -2 2 4 4 2 -2zm9 33c0,-1 1,-1 1,-2 1,0 1,-1 1,-1 0,-1 0,-1 -1,-1 0,0 0,0 0,0 0,0 0,0 0,0 0,0 0,0 -1,0 0,0 0,1 0,1l-1 -1c1,0 1,-1 2,-1 0,0 0,0 0,0 1,0 1,0 1,0 0,0 1,0 1,0 0,0 0,1 0,1 1,1 0,1 0,2 -1,0 -1,1 -1,1l2 -1 0 2 -4 0 0 0zm5 -2c0,0 0,0 0,-1 0,0 0,0 0,0 0,-1 0,-1 0,-1 0,-1 0,-1 0,-1 1,-1 1,-1 2,-1 1,0 2,0 2,1 0,0 1,1 1,1 0,1 0,1 -1,2 0,1 -1,1 -1,1 -1,0 -2,0 -3,-1zm3 -2c0,0 0,-1 -1,-1 0,0 0,0 0,0 0,0 0,0 0,0 0,0 0,0 -1,0 0,1 0,1 0,2 0,0 1,0 1,1 0,0 0,0 1,0 0,0 0,0 0,-1 0,0 0,0 0,-1zm3 -1c0,0 0,0 -1,0l0 -1c1,0 1,0 1,0 1,-1 1,-1 1,-1l1 0 0 5 -1 0 -1 -3zm4 3c0,0 1,0 1,0 0,0 0,0 0,0 1,0 1,0 1,-1 0,0 1,0 0,-1 0,0 0,0 0,0 0,0 0,0 -1,0 0,0 0,0 -1,0l0 0 0 -3 3 -1 0 1 -2 1 0 1c0,0 1,0 1,0 0,0 0,0 1,0 0,0 0,0 0,0 1,0 1,1 1,1 0,1 0,1 -1,2 0,0 -1,1 -2,1 0,0 0,0 -1,0l0 -1zm-18 -8l3 -1 0 1 -2 0 1 1 0 0 1 1 -1 0 0 1 -1 0 -1 -3zm3 -1l2 0 0 1 -1 0 0 1 1 -1 0 1 -1 0 0 1 2 0 0 0 -2 1 -1 -4zm3 3c0,0 1,0 1,0 0,0 0,0 0,0 1,0 1,-1 1,-1 0,0 0,0 -1,0 0,0 0,0 0,0 0,0 0,0 0,0 -1,0 -1,0 -1,-1 0,0 0,0 0,0 0,0 0,-1 0,-1 0,0 1,0 1,0 0,0 1,0 1,0l0 0c0,0 0,0 -1,0 0,0 0,0 0,0 0,0 0,0 0,0 0,1 0,1 0,1 0,0 0,0 0,0 0,0 0,0 0,0 0,0 0,0 0,0 0,0 1,0 1,0 0,0 0,0 0,0 0,1 0,1 0,1 1,0 0,1 0,1 0,0 0,0 -1,0 0,0 0,0 -1,0 0,0 0,0 0,0l0 0zm3 -3l-1 0 0 0 3 -1 0 1 -1 0 1 3 -1 0 -1 -3zm2 -1l1 0 1 3 -1 0 -1 -3zm2 0l1 0 0 1 1 1 0 -1 0 -2 1 0 -1 4 -1 0 -1 -3zm4 -1l1 0 2 3 -1 0 -1 0 -1 0 0 1 -1 0 1 -4zm1 2l0 -1 0 0 -1 0 0 1 1 0zm1 -2l1 0 1 2 1 0 0 1 -2 0 -1 -3z"/>
 </g>
</svg>
