<?xml version="1.0" encoding="UTF-8"?>
<!DOCTYPE svg PUBLIC "-//W3C//DTD SVG 1.1//EN" "http://www.w3.org/Graphics/SVG/1.1/DTD/svg11.dtd">
<!-- Creator: CorelDRAW X7 -->
<svg xmlns="http://www.w3.org/2000/svg" xml:space="preserve" width="5.6688mm" height="2.54mm" version="1.1" style="shape-rendering:geometricPrecision; text-rendering:geometricPrecision; image-rendering:optimizeQuality; fill-rule:evenodd; clip-rule:evenodd"
viewBox="0 0 154 69"
 xmlns:xlink="http://www.w3.org/1999/xlink">
 <defs>
  <style type="text/css">
   <![CDATA[
    .fil0 {fill:url(#id0)}
   ]]>
  </style>
  <linearGradient id="id0" gradientUnits="userSpaceOnUse" x1="-0" y1="34.5347" x2="154.15" y2="34.5347">
   <stop offset="0" style="stop-opacity:1; stop-color:#C8C8C8"/>
   <stop offset="1" style="stop-opacity:1; stop-color:#969697"/>
  </linearGradient>
 </defs>
 <g id="Layer_x0020_1">
  <metadata id="CorelCorpID_0Corel-Layer"/>
  <path class="fil0" d="M125 42l0 -2 0 0c0,0 0,0 0,0 1,0 1,0 2,-1 0,0 0,-1 0,-2l0 0 1 0 0 0c-1,0 -2,0 -3,0l0 0 0 0 0 -1 0 0 0 0c1,0 2,0 3,-1 0,0 0,0 0,0 0,-1 0,-1 0,-2 0,0 -1,0 -2,0 0,0 -1,0 -1,0l0 0 0 -1 0 0c0,0 0,0 0,0 0,0 1,-1 2,-1 1,0 2,0 2,1 1,0 1,0 1,0 0,1 0,1 0,2 0,0 0,0 0,1l0 0 -1 3 0 0c0,1 -1,2 -1,3 0,0 0,0 0,1l0 0 -2 0 0 0c0,-1 0,-1 0,-1 0,0 -1,0 -1,1l0 0 0 0zm9 22l0 -4 -1 0 0 -1 2 0 1 -6 -3 3 0 -2 4 -4 1 0 -2 9 2 0 0 1 -2 0 -1 4 -1 0 0 0zm-1 -4l-4 0 0 -1 4 -5 0 2 -2 3 2 0 0 1 0 0zm-25 4l1 -2 2 0 -1 2 0 0c0,1 0,1 -1,2 0,0 -1,1 -1,1l0 0 0 -1 0 0c1,0 1,-1 1,-2l0 0 -1 0 0 0zm-37 -2c0,0 0,0 0,0 1,-1 1,-2 2,-4 -1,1 -1,1 -2,1 0,0 0,0 0,0l0 0 0 -1 0 0c0,0 0,0 1,0 0,-1 0,-1 1,-2 0,-1 0,-1 0,-2 0,0 0,-1 0,-1 0,-1 -1,-1 -1,-1 0,-1 -1,-1 -1,-1 0,0 0,0 0,0l0 0 0 -1 0 0c0,0 0,0 0,0 1,0 2,0 3,1 1,1 1,2 1,4 0,1 0,3 -1,4 0,2 -1,3 -2,4 -1,0 -1,1 -1,1l0 0 0 -2 0 0zm29 7l0 -5c0,0 0,0 -1,0 0,-1 -1,-1 -1,-2 -1,-1 -1,-1 -1,-2 0,0 0,0 0,0l0 0 0 0 0 0 2 0 0 0c0,0 0,0 0,0 0,1 0,1 0,1 1,1 1,1 1,1l0 0 0 -5c0,0 0,0 0,0l0 0 -2 0 2 -7 0 0 0 -8 0 0 0 -2 0 -7c0,0 -1,0 -2,1 0,0 -1,1 -1,2l0 0 -2 6 -1 0 0 0 0 0 0 -2 3 -8 1 0 0 1 0 0c0,-1 1,-1 2,-2l0 -2 1 1 0 0 0 0 1 0 0 0 0 0 1 0 0 0 0 0 -2 -3 0 0c0,-1 0,-1 -1,-2l0 0 0 -25 0 0c13,2 24,9 29,20 7,16 18,42 25,49 -11,0 -26,2 -34,-6 -3,-4 -7,-10 -10,-17l0 0 -2 -5 -1 2 0 0 0 0c5,12 11,22 15,26 -7,0 -15,1 -22,0l0 0 0 0zm25 -37l0 1 0 0c-1,0 -1,0 -1,0 0,1 0,1 -1,2l0 0 -2 0 0 0c1,-1 1,-2 2,-2 0,-1 1,-1 2,-1l0 0 0 0 0 0zm0 4l0 1 0 0c-1,0 -2,1 -2,1 0,0 -1,0 -1,0 0,0 0,1 0,1 -1,1 -1,1 0,1 0,1 0,1 1,1 1,0 1,0 2,-1l0 0 0 2 0 0c-1,0 -1,0 -1,0 0,0 -1,0 -2,0 -1,0 -2,0 -2,-1 0,0 0,0 0,0l0 0 0 -2 0 0c0,0 0,0 0,0 0,0 0,-1 0,-1 1,-1 1,-1 2,-1 0,-1 1,-1 1,-1 0,0 1,0 2,0l0 0 0 0 0 0zm-5 -1l0 -2 0 0c0,1 0,1 0,2l0 0 0 0 0 0zm0 -2l0 2 -2 0 0 0c0,-1 0,-1 0,-2 -1,0 -1,0 -2,0 -1,0 -1,0 -2,1 -1,0 -1,1 -2,3 0,1 0,2 0,3 0,0 1,1 2,1 0,0 1,-1 2,-1 0,0 1,-1 1,-2l0 0 2 0 0 0c-1,1 -2,2 -3,3 -1,1 -2,1 -3,1 -1,0 -2,0 -3,-1 0,-1 0,-3 0,-4 1,-1 1,-2 2,-3 0,-1 1,-2 2,-2 1,0 2,-1 3,-1 1,0 2,1 2,1 0,0 1,1 1,1l0 0 0 0 0 0zm0 6c-1,1 -1,1 0,2l0 0 0 -2 0 0 0 0zm-26 -6l0 -1 0 0 0 1 0 0 0 0zm0 -5l0 0 1 0 -1 0 0 0 0 0zm0 -4l0 -1 0 0c0,0 1,-1 1,-1 1,-1 1,-2 2,-3 0,-1 0,-2 0,-3 0,0 -1,-1 -2,-1 0,0 -1,0 -1,0l0 0 0 -1 0 0c0,0 1,0 2,0 1,0 2,0 3,1 0,1 0,2 0,4 -1,1 -1,2 -2,3 -1,1 -1,1 -2,2 -1,0 -1,0 -1,0l0 0 0 0 0 0zm14 6l1 -2 2 0 -1 2 -2 0 0 0 0 0zm-3 12l3 -10 2 0 -4 10 -1 0 0 0zm-11 -2l-1 2 1 0 0 -2 0 0 0 0zm-10 -28l0 -2 1 0 -1 2 0 0 0 0zm0 -2l0 2 -2 6 0 -6 1 -2 1 0 0 0 0 0zm0 12l0 2 -1 0 1 -2 0 0 0 0zm0 17l0 3 -2 0 0 -1 1 -1 1 -1 0 0 0 0zm-2 -3l0 -3 0 0c1,1 1,2 0,3l0 0 0 0zm0 -24l0 6 -2 6 -1 0 0 -1 0 0c0,0 -1,1 -1,1l0 0 0 -1 0 0c0,0 0,-1 1,-1 0,-1 1,-2 1,-3 1,-1 1,-2 0,-3 0,0 0,-1 -1,-1 -1,0 -1,0 -1,0l0 0 0 -1 0 0c0,0 1,0 1,0 1,0 1,0 2,0 0,0 0,1 0,1l0 0 1 -3 0 0 0 0zm0 21l0 3 0 0c0,0 0,0 0,1 0,0 0,0 0,0l0 0 -4 0 0 -1 3 0 0 0c0,-1 0,-2 0,-2 -1,-1 -1,-1 -2,-1 -1,0 -1,0 -1,0l0 0 0 -1 0 0c0,-1 1,-1 1,-1 2,0 3,1 3,2 0,0 0,0 0,0l0 0 0 0 0 0zm0 8l0 1 0 0 0 -1 0 0 0 0zm-4 1l0 -2 0 0c0,0 0,0 0,0 1,0 1,-1 2,-1l0 0 2 0 0 0c-1,1 -2,2 -3,2 0,0 -1,1 -1,1l0 0 0 0zm0 -28l0 1 0 0c-1,1 -1,1 -1,1 -1,1 -2,2 -2,3 -1,1 -1,2 0,3 0,1 1,1 1,1 1,0 1,0 2,0l0 0 0 1 0 0c-1,0 -2,0 -2,0 -1,0 -2,0 -2,0 -1,-1 -1,-1 -1,-1l0 0 0 -4 0 0c0,0 0,0 0,0 0,-1 1,-2 1,-3 1,-1 2,-1 3,-2 0,0 0,0 1,0l0 0 0 0 0 0zm0 18l0 1 0 0c-1,0 -1,0 -1,1 -1,0 -2,1 -2,2l0 0 3 0 0 1 -4 0 0 0c0,1 0,2 1,3 0,0 1,1 1,1 1,0 1,0 2,-1l0 0 0 2 0 0c-1,0 -1,0 -2,0 -1,0 -2,0 -3,-1l0 0 0 -5 0 0c1,-1 1,-2 2,-3 1,-1 2,-1 3,-1l0 0 0 0 0 0zm-5 1l1 -1 0 0c-1,0 -1,0 -1,0l0 0 0 1 0 0zm0 -14l0 4 0 0c0,0 0,-1 0,-1 0,-1 0,-2 0,-3l0 0 0 0 0 0zm0 17c0,0 0,1 0,1 -1,1 -1,3 0,4 0,0 0,0 0,0l0 0 0 -5 0 0 0 0zm-11 -22c0,0 0,0 1,0l0 0 -1 2 0 -2 0 0 0 0zm4 0l0 2 0 0c0,0 0,0 0,0 -1,0 -1,0 -2,1l0 0 -1 0 0 0c0,-1 1,-1 1,-2 1,0 1,-1 2,-1l0 0 0 0 0 0zm0 4l0 2 0 0c-1,0 -1,0 -2,0 0,0 0,0 -1,1 0,0 0,0 0,0 0,1 0,1 0,2 0,0 1,0 1,0 1,0 1,0 2,0l0 0 0 1 0 0c0,0 0,0 0,0 -1,0 -2,0 -2,0 -1,0 -2,0 -2,0l0 0 0 -4 0 0c0,0 0,0 0,0 0,0 1,-1 1,-1 1,0 1,0 1,0 1,-1 1,-1 2,-1l0 0 0 0 0 0zm0 21l0 3 -1 0 1 -3 0 0 0 0zm-4 3l0 -5 0 -2 0 0c1,0 1,-1 1,-1 0,0 -1,-1 -1,-1 0,0 0,0 0,0l0 0 0 -2 0 0c0,0 0,0 0,0 1,0 2,1 2,1 1,1 1,2 0,3l0 0 -2 7 0 0 0 0zm0 -22c-1,1 -1,1 -1,1 0,1 0,2 0,3 0,0 1,0 1,0l0 0 0 -4 0 0 0 0zm0 17l-2 5 2 0 0 -5 0 0zm38 -37l0 25 0 0c0,-1 -1,-2 -1,-3l0 0 0 0 0 0 0 0 -1 1 0 0 0 0 0 0 0 0 0 0c1,2 2,4 2,6l0 0 0 2c1,0 1,0 1,0 1,0 2,1 2,1 0,0 1,0 1,1 0,0 0,0 0,1 0,0 0,1 0,2l0 0 -3 6 -1 0 0 8 7 0 0 2 -6 0 -1 3 0 0c1,0 1,0 2,0 0,-1 0,-1 1,-1 1,0 2,1 3,1 0,1 1,2 1,3 0,1 -1,2 -1,3 -1,1 -1,2 -2,2 -1,1 -2,1 -3,1 0,0 0,0 -1,0l0 5 0 0c-3,-1 -5,-2 -8,-3l0 0 0 -32 -4 4 0 2 4 0 -1 2 -3 0 0 21 0 0c1,2 2,3 4,3l0 0 0 -32 2 -1 0 0 0 -1 0 0 0 0 -2 0 0 -2 -1 0 -1 0 -2 -2 2 0 1 1 1 -1 0 -4c-1,0 -2,0 -3,-1 0,-1 0,-2 0,-4 1,-2 2,-3 3,-4l0 0 0 -2 0 0c0,0 0,0 0,0l0 0 0 0 1 0 0 0 0 0 0 0 0 0c0,-1 -1,-1 -1,-2l0 0 0 -11 0 0c3,0 6,0 8,0l0 0 0 0zm0 57l0 5c1,1 1,1 1,1 1,0 1,0 2,-1 1,0 1,-1 1,-1 1,-1 1,-2 1,-3 0,0 0,-1 -1,-1 0,-1 -1,-1 -2,-1 0,0 -1,0 -1,0 0,0 0,0 -1,1zm0 -24l0 7 2 -4 0 0c0,-1 0,-2 0,-2 0,0 0,-1 0,-1 -1,0 -1,0 -1,0l-1 0zm-8 -10l0 -6c0,0 -1,1 -1,2 -1,1 -1,2 0,3 0,1 0,1 1,1zm0 -23l0 11 0 0c0,0 -1,-1 -1,-1l0 0 0 1 0 0c0,1 1,1 1,2l0 0 0 2c1,-1 1,-1 2,-1l0 0 0 0 0 0 0 1 0 0c-1,1 -1,1 -1,1 -1,0 -1,1 -1,1l0 6c0,0 0,0 1,0 0,0 0,0 1,0l0 0 0 1 0 0c-1,0 -1,0 -2,0l0 0 0 4 1 0 1 0 0 0 0 0 0 0 -2 2 0 2 -4 0 0 -16 -3 8 -1 0 0 0 0 0 0 -2 3 -8 1 0 0 -2 -1 0 0 0 1 -2 0 -1 0 0 1 0 0 0c0,-1 0,-1 -1,-1 0,0 0,0 0,0l0 0 0 -8 0 0c1,0 3,0 4,0l0 0 0 0 0 0zm-4 36l0 -3 -3 0 1 -1 2 0 0 -16 0 -2 0 0 0 -2 1 0 1 -2 -2 0 0 0 0 -1 0 0c-1,-1 -1,-1 -2,-2 1,0 1,1 2,1l0 0 0 -8 0 0 0 0c-4,1 -7,2 -10,3 -3,-1 -6,-2 -9,-2l0 0 0 13c0,0 1,0 1,0 1,0 1,1 1,1 1,0 1,1 1,1 0,0 -1,1 -1,2l0 0 -1 2 0 0c0,2 0,3 0,3 -1,0 -1,1 0,1l0 0 -1 0 0 2 0 0c0,0 0,1 0,1l0 0 2 3 -1 0 0 0 0 0 -1 0 0 0 0 2 1 0 -1 1 0 0c1,-1 1,-1 2,-1 0,0 1,-1 1,-1 0,0 1,0 1,1l0 0 0 0 0 0 0 1 -1 1 0 0c0,-1 0,-1 -1,-1 0,0 0,0 -1,1 0,0 0,0 -1,0 0,1 0,1 0,2l0 14c0,0 1,0 2,0l0 0 0 1 0 0c-1,0 -1,0 -1,1 -1,0 -1,0 -1,0l0 1 0 4c0,1 1,1 1,1 0,0 0,0 1,0l0 0 0 1 0 0c-1,0 -1,0 -1,0 -1,0 -1,0 -1,0l0 4c0,0 0,0 0,0 1,0 1,0 2,-1l0 0 0 2 0 0c-1,0 -1,0 -2,0l0 0 0 5 0 0c6,0 13,0 19,0l0 0 0 -2 0 0c-4,-5 -9,-14 -13,-24l0 0 0 0 0 0 1 0 0 0 0 0 1 0 0 0 1 3 0 0c3,7 6,13 9,17 1,0 1,0 1,0l0 0 0 -21 -4 0 0 -3 4 -3zm0 33l0 -2 0 0c0,1 1,1 2,2 -1,0 -2,0 -2,0l0 0 0 0zm0 -36l0 3 3 -3 0 0c0,0 -1,0 -2,0l0 0 -1 0zm0 5l0 2 -1 0 0 0c-1,0 -1,0 -2,0l0 0 1 -1 2 -1zm-19 -18l0 -1c-1,0 -2,1 -3,1l0 0 0 0 0 -2 0 0c0,0 0,0 0,0 1,0 2,0 3,0l0 -3c-1,0 -1,0 -1,0 -1,0 -2,0 -2,1l0 0 0 -2 0 0c0,0 0,0 0,0 1,0 2,0 2,0l1 0 0 -13 0 0c-4,-1 -8,-1 -12,-1l0 0 0 9 0 0c1,1 3,2 4,3l0 0 0 0 -1 0 0 0 0 0 0 0 0 1 0 0c-1,-1 -2,-2 -3,-3l0 0 0 4 2 0 -1 2 0 0c1,-1 1,-2 2,-2 0,0 1,0 1,0 0,0 0,0 1,0l0 0 0 2 -1 0 0 0c0,0 0,0 -1,0 0,0 0,0 -1,0 0,0 0,0 -1,1 0,0 0,1 -1,2l0 0 0 0 0 13c1,0 1,0 1,0 0,0 0,1 0,1 2,-1 3,-1 4,-2l0 0 0 0 0 0 0 2 0 0c0,0 -1,0 -1,0 0,0 -1,0 -2,1 0,0 -1,1 -1,2l0 0 -1 2 0 27 0 0c3,2 7,3 12,4l0 0 0 -5c-1,0 -2,0 -2,-1 -1,0 -1,-1 -1,-2l0 0 0 0 0 0 1 0 0 0c0,0 0,1 1,1 0,0 0,1 1,1l0 -4c-1,0 -1,0 -2,0 0,-1 -1,-2 -1,-4 0,-1 1,-3 2,-4 0,0 0,0 1,-1l0 -14c0,0 -1,0 -1,0l0 0 -1 6 -1 0 0 -3 2 -7 1 0 0 -2 0 0c-1,-2 -2,-3 -2,-4l0 0 1 0 1 0 0 -2 -1 0 0 0c0,0 0,-1 0,-1 -1,0 -2,1 -2,1l0 0 0 0 0 -1 0 0c0,0 0,0 0,0 1,-1 1,-1 2,-2 0,0 0,0 1,-1zm0 37l0 -4c-1,0 -1,0 -1,1 0,0 0,1 0,1 0,1 0,2 1,2l0 0zm0 -37l0 -1 0 0 0 0 0 1 0 0 0 0zm0 -2l0 -3c0,0 0,1 1,1 0,0 0,1 0,1 0,0 -1,0 -1,1 0,0 0,0 0,0zm-12 -8c-1,-1 -2,-2 -3,-3 1,0 1,1 2,1 0,0 1,0 1,1l0 0 0 -9 0 0c-4,1 -8,2 -11,3 -15,-6 -34,-3 -46,8 12,-5 21,-4 23,-3 5,2 11,12 14,19l0 0 9 19 0 0c3,7 6,13 9,17 1,1 2,1 2,2l0 0 0 -27 -1 4 -2 0 2 -7 0 0c1,-1 1,-1 0,-2 0,0 0,0 -1,0 0,0 -1,0 -1,0 -1,1 -1,1 -1,1 -1,1 -1,2 -1,3l0 0 -2 5 -2 0 3 -10 2 0 0 1 0 0c0,0 1,-1 1,-1 1,0 1,-1 2,-1 1,0 1,0 1,1l0 -13 -1 5 -2 0 0 0 0 0 3 -10 0 0 0 -4 0 0z"/>
 </g>
</svg>
