<?xml version="1.0" encoding="UTF-8"?>
<!DOCTYPE svg PUBLIC "-//W3C//DTD SVG 1.1//EN" "http://www.w3.org/Graphics/SVG/1.1/DTD/svg11.dtd">
<!-- Creator: CorelDRAW X7 -->
<svg xmlns="http://www.w3.org/2000/svg" xml:space="preserve" width="10.0098mm" height="9.731mm" version="1.1" style="shape-rendering:geometricPrecision; text-rendering:geometricPrecision; image-rendering:optimizeQuality; fill-rule:evenodd; clip-rule:evenodd"
viewBox="0 0 76 74"
 xmlns:xlink="http://www.w3.org/1999/xlink">
 <defs>
  <style type="text/css">
   <![CDATA[
    .fil0 {fill:#156A3C;fill-rule:nonzero;fill-opacity:0.501961}
   ]]>
  </style>
 </defs>
 <g id="Layer_x0020_1">
  <metadata id="CorelCorpID_0Corel-Layer"/>
  <path class="fil0" d="M39 50l-6 0c-2,0 -3,1 -4,2 -1,1 -2,2 -2,4 0,1 1,3 2,4 1,1 2,2 4,2l6 0 1 0 0 0 0 11 8 0 18 0 9 0 0 -34 -35 0 0 11 0 0 -1 0zm-6 -1l5 0 0 -11 0 0 1 0 36 0 1 0 0 0 0 35 0 1 -1 0 -9 0 -18 0 -9 0 -1 0 0 -1 0 -10 -5 0c-2,0 -4,-1 -5,-2 -1,-2 -2,-3 -2,-5 0,-2 1,-4 2,-5 1,-1 3,-2 5,-2zm-32 -49l36 0 0 0 0 1 0 13 6 0c2,0 4,0 5,2 1,1 2,3 2,5 0,1 -1,3 -2,4 -1,2 -3,2 -5,2l-6 0 0 8 0 1 0 0 -9 0 -1 0 0 -1 0 -4c0,-2 -1,-4 -2,-6 -2,-1 -4,-2 -6,-2 -3,0 -5,1 -6,2 -2,2 -3,4 -3,6l0 4 0 1 0 0 -9 0 -1 0 0 -1 0 -34 0 -1 1 0zm35 1l-35 0 0 34 8 0 0 -4c0,-2 1,-5 3,-7 2,-1 4,-2 7,-2 2,0 5,1 7,2 1,2 2,5 2,7l0 4 8 0 0 -8 0 -1 1 0 6 0c2,0 3,0 4,-1 1,-1 2,-3 2,-4 0,-2 -1,-4 -2,-5 -1,-1 -2,-1 -4,-1l-6 0 -1 0 0 -1 0 -13zm-24 37l0 -6c0,-3 3,-6 7,-6l0 0c3,0 6,3 6,6l0 6 12 0 0 9 -5 0c-5,0 -9,4 -9,9l0 0c0,5 4,8 9,8l5 0 0 9 -36 0 0 -35 11 0z"/>
 </g>
</svg>
