<?xml version="1.0" encoding="UTF-8"?>
<!DOCTYPE svg PUBLIC "-//W3C//DTD SVG 1.1//EN" "http://www.w3.org/Graphics/SVG/1.1/DTD/svg11.dtd">
<!-- Creator: CorelDRAW X7 -->
<svg xmlns="http://www.w3.org/2000/svg" xml:space="preserve" width="10.2052mm" height="10.6502mm" version="1.1" style="shape-rendering:geometricPrecision; text-rendering:geometricPrecision; image-rendering:optimizeQuality; fill-rule:evenodd; clip-rule:evenodd"
viewBox="0 0 342 357"
 xmlns:xlink="http://www.w3.org/1999/xlink">
 <defs>
  <style type="text/css">
   <![CDATA[
    .fil0 {fill:#156A3C;fill-rule:nonzero;fill-opacity:0.501961}
   ]]>
  </style>
 </defs>
 <g id="Layer_x0020_1">
  <metadata id="CorelCorpID_0Corel-Layer"/>
  <path class="fil0" d="M189 312c1,-2 3,-3 4,-5 9,-10 19,-20 17,-42l-2 0c-2,0 -4,2 -6,4 -3,4 -7,9 -8,12 -2,3 -4,7 -5,10 -3,7 -3,14 -1,19 0,1 0,2 0,3l1 -1zm-12 -116c0,-1 -1,-1 -2,-1 -3,-1 -3,-3 -4,0l-4 9c0,1 -2,4 -1,5 0,0 4,2 5,2l5 -11c1,-1 2,-3 1,-4zm-5 23c-2,0 -4,1 -5,2 -1,0 -1,0 -2,0l-4 -2c0,0 -1,0 -1,-1 -1,-1 -2,-4 -2,-5 1,0 3,1 4,1 1,1 2,1 3,2 1,0 2,1 3,1 1,0 3,1 4,2zm-12 2c1,0 3,0 3,1 0,1 0,2 -1,3 -3,9 -12,10 -21,6 -2,-1 -3,-1 -5,-2 -10,-5 -12,5 -14,1 -1,-1 -1,-2 0,-3 2,-1 4,-2 6,-2 6,-1 9,1 12,3 3,1 8,2 13,1 2,0 4,-2 5,-3 0,-1 2,-4 2,-5zm60 -88c-1,0 -29,-13 -30,-13 1,-2 8,-3 10,-3 6,0 12,3 16,8 2,2 4,5 4,8zm1 5c1,6 -3,14 -8,18 -7,5 -18,5 -24,1 -6,-4 -9,-9 -10,-16 -1,-3 0,-7 1,-10 1,-3 3,-7 6,-8l13 5c1,1 3,1 4,2 4,2 10,4 14,6 1,0 3,1 4,2zm-20 27c0,1 -2,4 -2,5 -1,1 -2,3 -2,4 -2,3 -3,6 -5,9 0,1 -1,3 -2,4l-3 7c-3,5 -8,15 -10,20 0,1 -1,3 -4,3 -1,0 -8,-3 -9,-4 -3,-1 -7,-2 -6,-7 5,-12 10,-25 15,-37 1,-3 4,-13 6,-14 0,0 2,-1 2,0 1,0 1,0 1,1 3,2 6,4 10,5 5,2 5,1 7,2 1,0 2,1 2,2zm-4 145l-1 1c2,0 4,0 6,0l1 -3c1,-3 2,-6 3,-10 -3,5 -6,8 -9,12zm17 -48c1,12 0,21 -3,28 2,-4 5,-7 8,-10 8,-7 19,-12 30,-14l3 0 0 3c-2,11 -8,20 -16,28 -8,7 -19,12 -30,14 7,0 14,1 20,3 9,4 17,9 20,17l1 3 -2 0 -2 0c-12,2 -23,3 -35,-1 -4,-1 -7,-3 -9,-4 -2,-1 -4,-2 -5,-3 1,2 2,4 4,7l0 1c2,4 3,6 3,9 1,3 1,6 1,10l0 3 -3 -2c-5,-2 -8,-7 -11,-13 -3,-6 -5,-13 -5,-20l0 -4 3 2c1,0 1,0 1,0 0,-1 -1,-2 -2,-3l0 0 0 0c0,-1 -1,-3 -2,-4 -2,-7 -1,-15 2,-23 1,-3 3,-6 5,-10 2,-3 5,-9 9,-13 3,-3 6,-5 9,-6l0 0 0 0 4 0 1 0 1 2zm-24 54c2,3 6,6 11,9 2,1 5,3 8,4 11,4 21,3 32,1 -3,-5 -9,-9 -17,-12 -10,-3 -23,-4 -33,-2l-1 0zm8 32c0,-1 -1,-3 -1,-4 0,-3 -1,-5 -3,-8l0 -1c-3,-5 -4,-8 -6,-10 0,5 2,10 4,14 1,4 3,7 6,9zm-54 0c2,-3 4,-6 6,-10 2,-4 3,-8 4,-13 -3,2 -5,6 -7,9 -2,5 -3,9 -3,14zm10 -8c-3,6 -7,11 -11,15l-4 2 0 -4c0,-6 2,-14 4,-20 1,-2 2,-4 3,-5 -2,1 -5,2 -8,3 -10,4 -23,6 -36,3 -2,0 -3,0 -5,-1l-2 0 1 -3c4,-7 11,-12 20,-15 6,-3 13,-4 20,-4 -11,-2 -21,-7 -30,-15 -8,-7 -14,-17 -15,-28l-1 -2 3 0c12,2 22,7 31,15 2,2 5,5 7,8 -3,-8 -4,-18 -3,-28l1 -3 2 1c7,3 16,13 22,24 5,10 7,20 5,31 0,0 0,0 0,1 0,1 -1,1 -1,2l1 0 0 3c0,8 -2,14 -4,20zm-91 -256c6,-4 11,-12 13,-22 3,-9 3,-19 1,-28 -6,5 -10,12 -13,20 -2,9 -3,19 -1,30zm18 -20c-1,2 -2,5 -3,8 5,-7 14,-13 24,-17 10,-3 21,-4 33,0l3 1 -2 2c-7,8 -14,15 -23,18 -10,4 -21,5 -36,2l-3 0c-3,5 -7,9 -12,12l-2 1 -1 -3c-2,-12 -2,-25 1,-35 3,-10 9,-19 16,-25l3 -1 1 2c4,11 4,24 1,35zm0 10c13,2 22,1 30,-2 8,-3 14,-8 19,-14 -9,-2 -18,-1 -26,1 -10,3 -18,9 -23,15zm54 232c-3,-9 -8,-16 -14,-22 -7,-6 -16,-11 -25,-13 1,8 7,16 13,22 7,6 16,11 26,13zm4 -1c0,1 0,2 0,3l1 2c1,0 2,0 3,0 -1,-1 -3,-3 -4,-5zm107 -10c4,1 8,3 12,3 6,1 12,1 17,0 4,-1 9,-3 13,-5 4,-1 7,-4 9,-6 1,0 1,0 1,0 -12,-3 -21,-5 -29,-3 -8,1 -15,4 -23,11zm11 7c-6,0 -11,-2 -16,-5l-2 -1 2 -2c6,-6 12,-9 17,-12 0,0 0,0 -1,0l0 0c0,0 -1,0 -1,0 0,0 -1,0 -1,0l-1 -1 0 -1c-2,-11 1,-23 5,-33 5,-11 13,-19 21,-22l3 -1 0 3c2,11 -1,23 -4,32 -4,11 -11,19 -16,22 2,-1 3,-1 5,-2 10,-1 20,1 34,4l3 1c-4,5 -5,6 -9,10 -2,1 -4,2 -6,3 -5,3 -10,4 -14,5 -6,1 -13,1 -19,0zm-218 -161l0 1 -2 1 -1 -1c-5,-2 -4,-3 -8,-7 -4,-5 -6,-12 -7,-20 -2,-11 0,-24 3,-33l1 -3 2 1 1 0 0 0c8,6 13,17 15,29 1,4 1,8 1,12 3,-10 8,-19 16,-26 8,-7 18,-12 30,-14l2 0 0 3c-2,11 -8,21 -17,29 -8,7 -18,12 -30,13l-2 0c0,6 -2,11 -4,15l0 0zm-3 -4c3,-6 4,-17 3,-27 -2,-10 -5,-19 -11,-24 -3,8 -4,19 -3,29 1,8 4,16 10,22 0,0 1,0 1,0zm249 70c0,6 1,11 3,16 1,4 2,7 4,10 5,-9 8,-20 8,-29 -1,-9 -3,-16 -8,-24 -2,4 -4,7 -5,11 -1,5 -2,10 -2,16zm-2 17c-1,-5 -2,-11 -2,-17 0,-6 0,-12 2,-17 2,-5 4,-10 7,-15l2 -2 2 2c7,9 10,19 10,28 0,11 -3,22 -8,32 2,-2 4,-3 5,-5 5,-3 10,-6 16,-7 5,-2 12,-3 18,-3l3 0 -1 3c-3,9 -10,19 -21,26 -9,5 -19,9 -31,8l-3 0 1 -3c2,-5 4,-9 7,-13 1,0 1,-1 2,-2l-1 -1c-3,-4 -6,-8 -8,-14zm-71 -166c5,7 12,11 20,14 8,3 18,4 30,2 -4,-6 -12,-11 -22,-14 -10,-4 -21,-5 -28,-2l0 0zm19 18c-10,-3 -18,-9 -24,-17l-1 -2 1 -1c1,0 1,0 1,0l0 0c0,-1 1,-1 1,-1l0 0c0,0 1,0 1,-1l0 0 0 0 0 0c8,-3 21,-2 32,2 9,3 17,7 22,14 -2,-4 -3,-7 -4,-10 -2,-10 -2,-21 3,-30l1 -3 2 2c6,5 11,11 14,18 4,7 5,15 5,24l0 0 0 0 -2 14 0 0 0 0c-1,3 -1,4 -2,4l-1 1 -2 -1c-3,-2 -7,-6 -10,-11l-3 0c-13,2 -25,1 -34,-2zm-221 148c3,5 4,8 7,11 2,3 5,6 10,9 5,3 10,6 16,7 3,1 7,2 11,2 -4,-8 -9,-15 -16,-20 -7,-5 -16,-8 -28,-9zm3 14c-3,-4 -5,-8 -8,-15l-1 -3 3 0c14,0 25,4 33,10 2,1 4,3 6,5 -5,-9 -8,-20 -7,-31 0,-10 2,-20 9,-28l2 -2 1 2c4,3 6,7 8,12 2,7 3,14 3,19 0,6 -1,13 -3,19 -2,5 -5,9 -8,12l-1 1c4,4 7,9 9,14l2 3 -3 0c-6,1 -11,1 -16,-1 -7,-1 -13,-4 -17,-8 -6,-3 -9,-6 -12,-9zm245 40l1 0 0 -1c5,-1 12,-9 16,-19 3,-8 5,-18 4,-28 -6,3 -12,10 -16,19 -4,9 -6,19 -5,29zm-195 -48c-1,12 2,22 6,30 2,6 6,11 9,14 3,3 5,4 7,5 0,-2 1,-6 0,-11 -1,-6 -3,-12 -6,-18 -3,-8 -8,-15 -16,-20zm2 32c-5,-9 -8,-21 -6,-35l1 -3 2 1c10,5 17,14 21,23 3,6 5,13 6,19 1,6 1,11 -1,14 0,1 -1,1 -2,2 5,2 10,4 13,8 0,0 0,0 0,1 1,0 1,0 2,1l0 0c0,1 0,2 -1,2 1,0 2,0 2,1l1 2 -2 1c-2,0 -4,1 -5,1 -10,2 -17,4 -29,2 -6,-1 -12,-3 -18,-6 -4,-3 -8,-6 -10,-10l-1 -2 3 -1c9,-2 22,-5 35,-3 1,0 2,0 3,1 -1,-1 -3,-3 -4,-4 -3,-4 -7,-9 -10,-15zm238 -144c0,5 0,9 1,12 0,3 1,5 2,7l0 0c3,-2 5,-6 7,-9 2,-4 3,-9 4,-13 3,-11 0,-20 -2,-29l0 0c-3,2 -6,7 -8,11 -3,7 -4,14 -4,21zm-4 13c0,-2 0,-4 0,-6l-2 0c-11,1 -21,-4 -29,-11 -9,-8 -15,-19 -18,-30l0 -3 3 0c12,2 21,7 29,14 8,6 13,15 16,25 0,-1 0,-1 0,-2 0,-7 2,-16 5,-22 3,-7 7,-13 12,-16l2 -1 1 2c0,1 1,3 1,4 3,10 5,19 2,31 -1,5 -2,9 -4,14 -2,4 -5,7 -8,10l0 1 0 0 -2 1 -2 2 -1 -2c-2,-3 -4,-7 -5,-11l0 0zm-262 40l0 6c7,-3 12,-10 16,-18 4,-8 6,-19 6,-30 -2,1 -2,1 -3,2 -2,1 -3,2 -4,4 -5,5 -9,11 -12,18 -2,6 -4,12 -3,18l0 0zm-4 7l-1 -7c0,-6 1,-13 4,-20 3,-7 8,-14 12,-19 2,-2 4,-4 5,-5 2,-1 4,-2 7,-3l2 -1 1 3c1,13 -1,25 -6,35 -5,10 -12,18 -21,21l-1 1c1,5 2,11 2,17l0 3 -2 -1c-10,-3 -19,-10 -26,-20 -6,-9 -9,-20 -9,-32l0 -3 3 1c9,3 18,10 24,20 3,3 4,7 6,10zm0 19c-1,-10 -4,-19 -9,-27 -5,-8 -12,-14 -20,-17 1,10 4,19 9,27 5,8 12,14 20,17zm34 101c11,2 19,0 27,-2l3 -1c0,0 -1,0 -1,-1 -5,-6 -13,-9 -21,-10 -10,-1 -22,0 -31,3 2,2 5,4 7,5 5,3 11,5 16,6zm242 -101c8,-3 15,-9 21,-18 5,-7 8,-16 8,-26 -8,3 -15,10 -21,18 -4,8 -8,17 -8,26zm24 -15c-6,10 -16,17 -25,20l-3 1 0 -3c0,-6 1,-12 2,-17l-1 -1c-7,-3 -15,-10 -20,-20 -5,-8 -8,-17 -7,-27l0 -9 1 -2 2 0c4,1 8,4 12,7 4,4 7,10 10,15 2,5 4,11 5,16 1,5 1,10 0,15 2,-3 3,-5 5,-8 6,-10 16,-18 25,-21l3 -1 0 3c1,11 -3,23 -9,32zm-285 -61c9,-1 18,-6 24,-12 7,-6 13,-14 15,-23 -10,2 -18,6 -24,12 -7,6 -12,14 -15,23zm2 112c2,-2 3,-5 5,-8 2,-6 2,-12 2,-18 0,-5 0,-11 -2,-17 -1,-4 -3,-7 -5,-10 -5,7 -7,16 -7,24 0,11 3,21 7,29zm230 -148c0,0 1,0 1,0 1,0 -1,0 -1,-1l-1 0 2 -13c0,-8 -1,-16 -4,-22 -3,-6 -7,-11 -12,-15 -3,8 -3,16 -1,25 3,11 10,21 16,26zm14 36c-3,-9 -8,-17 -15,-23 -6,-6 -14,-10 -24,-12 3,9 9,18 16,25 7,5 15,9 23,10zm-6 132c10,0 19,-3 26,-8 8,-5 15,-13 18,-21 -5,1 -10,1 -14,3 -5,1 -10,4 -14,7 -4,2 -7,6 -11,10 -2,3 -4,6 -5,9zm-5 -118c0,9 2,18 7,25 4,8 10,14 15,17 1,-5 0,-9 0,-14 -1,-5 -3,-10 -5,-15 -2,-5 -6,-10 -9,-14 -3,-2 -5,-4 -7,-5l-1 6zm-50 -88c-2,-10 -5,-19 -11,-25 -6,-8 -13,-13 -22,-16 1,10 5,19 10,25 6,7 14,13 23,16zm-8 -28c7,8 11,19 12,31l1 3 -3 -1c-11,-3 -21,-9 -28,-18 -6,-8 -11,-18 -12,-31l0 -3 3 1c11,3 20,9 27,18zm-17 287c9,-2 18,-6 25,-12 7,-7 12,-14 14,-23 -10,2 -18,6 -25,12 -7,6 -12,14 -14,23zm-99 -259c9,-2 16,-8 22,-15 6,-7 10,-16 11,-26 -9,3 -16,8 -21,15 -6,7 -10,15 -12,26zm25 -12c-7,9 -16,15 -27,17l-3 1 1 -3c1,-13 6,-24 12,-32 7,-8 16,-14 27,-17l3 -1 0 3c-1,12 -6,23 -13,32zm-2 230c0,9 1,17 4,25 3,9 9,16 15,21l3 3 0 0c0,-1 0,-1 0,-1l0 0c2,-9 -1,-19 -5,-28 -4,-9 -11,-17 -17,-20zm21 50l-4 0c-11,-1 -22,0 -31,4 -7,2 -13,6 -17,11 1,0 1,0 1,0 13,3 25,1 35,-3 8,-3 14,-7 16,-12z"/>
 </g>
</svg>
