<?xml version="1.0" encoding="UTF-8"?>
<!DOCTYPE svg PUBLIC "-//W3C//DTD SVG 1.1//EN" "http://www.w3.org/Graphics/SVG/1.1/DTD/svg11.dtd">
<!-- Creator: CorelDRAW X7 -->
<svg xmlns="http://www.w3.org/2000/svg" xml:space="preserve" width="2.5399mm" height="2.5399mm" version="1.1" style="shape-rendering:geometricPrecision; text-rendering:geometricPrecision; image-rendering:optimizeQuality; fill-rule:evenodd; clip-rule:evenodd"
viewBox="0 0 69 69"
 xmlns:xlink="http://www.w3.org/1999/xlink">
 <defs>
  <style type="text/css">
   <![CDATA[
    .fil0 {fill:url(#id0)}
   ]]>
  </style>
  <linearGradient id="id0" gradientUnits="userSpaceOnUse" x1="-0" y1="34.6298" x2="69.2596" y2="34.6298">
   <stop offset="0" style="stop-opacity:1; stop-color:#C8C8C8"/>
   <stop offset="1" style="stop-opacity:1; stop-color:#969697"/>
  </linearGradient>
 </defs>
 <g id="Layer_x0020_1">
  <metadata id="CorelCorpID_0Corel-Layer"/>
  <path class="fil0" d="M6 0l57 0c4,1 6,3 6,6l0 57c0,4 -2,6 -6,6l-57 0c-4,0 -6,-2 -6,-6l0 -57c1,-4 3,-6 6,-6zm11 4c3,7 4,11 4,12l0 12 4 0 0 -13c0,0 2,-4 5,-11l-4 0c-1,0 -1,2 -3,7l0 0c-1,-4 -2,-7 -3,-7l-3 0zm12 16c0,5 1,8 3,8 0,0 0,0 1,0l2 0c2,0 3,-2 4,-5l0 -8c0,-3 -2,-5 -5,-5l-1 0c-2,0 -4,2 -4,8l0 2zm12 -10l0 14c0,2 1,4 2,4l1 0 2 -1 0 0 0 1 4 0 0 -18 -3 0 0 13c0,1 -1,2 -2,2l0 0c0,0 0,0 -1,-1l0 -14 -3 0zm-7 3c1,0 1,0 1,1l0 9c0,1 0,2 -1,2 -1,0 -1,-1 -2,-2l0 -8c0,-2 1,-2 2,-2zm-25 28l0 15c0,5 2,8 6,9 1,1 2,1 3,1l34 0c4,0 7,-2 8,-6 0,-1 1,-2 1,-4l0 -15c0,-5 -2,-8 -6,-9 -2,-1 -3,-1 -4,-1l-33 0c-5,0 -8,3 -9,7 0,1 0,2 0,3zm4 -3l10 0c1,0 1,0 1,0l0 2c0,0 0,0 -1,0l-4 0 0 19c0,0 0,1 0,1l-2 0c-1,0 -1,-1 -1,-1l0 -19 -3 0c0,0 -1,0 -1,0l0 -2c0,0 1,0 1,0zm22 0l3 0c0,0 0,0 0,0l0 6c1,-1 2,-1 3,-1 2,0 3,1 3,4l0 8c0,3 -1,4 -3,5l0 0c-1,0 -2,-1 -3,-2 0,1 -1,1 -1,1l-2 0c0,0 0,0 0,0 0,-2 0,-9 0,-21l0 0zm16 4c3,0 4,2 4,5l0 4c0,1 0,1 0,1l-6 0 0 4c0,0 0,1 1,1l2 0c0,0 0,0 1,-1l0 -2c0,0 0,0 0,0l2 0c0,0 0,0 0,1 0,3 -1,5 -4,5l-1 0c-2,-1 -4,-3 -4,-6l0 -5c0,-5 2,-7 5,-7zm-27 1l2 0c0,0 1,0 1,1l0 11c0,1 0,2 1,2l0 0c1,0 1,-1 1,-2l0 0 0 -11c0,-1 0,-1 0,-1l3 0c0,0 0,0 0,1l0 15c0,0 0,1 0,1l-2 0c0,0 0,-1 0,-3 -1,2 -3,3 -4,3l-1 0c-1,0 -2,-2 -2,-5l0 -11c0,-1 0,-1 1,-1zm14 3l0 9c0,1 1,2 2,2 1,0 1,-1 1,-1l0 -10c0,-1 0,-1 -1,-1l-1 0c-1,0 -1,1 -1,1zm11 1l0 2 4 0 0 -1c0,0 0,-1 0,-1 -1,-1 -1,-2 -2,-2 -1,1 -2,1 -2,2z"/>
 </g>
</svg>
