<?xml version="1.0" encoding="utf-8"?>
<!-- Generator: Adobe Illustrator 21.1.0, SVG Export Plug-In . SVG Version: 6.00 Build 0)  -->
<svg version="1.1" id="Layer_1" xmlns="http://www.w3.org/2000/svg" xmlns:xlink="http://www.w3.org/1999/xlink" x="0px" y="0px"
	 width="21px" height="19px" viewBox="0 0 21 19" style="enable-background:new 0 0 21 19;" xml:space="preserve">
<style type="text/css">
	.st0{fill:#592CA9;}
</style>
<g id="Group_321" transform="translate(846.25 10794.56)">
	<g id="Group_320" transform="translate(100.725 -33.56)">
		<path id="Path_260" class="st0" d="M-942.8-10750.8c-0.4,0.5-1.2,0.5-1.6,0c0,0,0,0,0,0c-0.4-0.5-0.4-1.2,0-1.7l7.1-7.1
			c0.5-0.5,1.2-0.5,1.7,0l7.1,7.1c0.5,0.5,0.5,1.2,0,1.7c-0.5,0.5-1.2,0.5-1.7,0c0,0,0,0,0,0l-5.1-5.1v10.7c0,0.7-0.5,1.2-1.2,1.2
			c-0.6,0-1.2-0.5-1.2-1.2c0,0,0-10.7,0-10.7L-942.8-10750.8z"/>
	</g>
</g>
</svg>
