<?xml version="1.0" encoding="utf-8"?>
<!-- Generator: Adobe Illustrator 17.0.0, SVG Export Plug-In . SVG Version: 6.00 Build 0)  -->
<!DOCTYPE svg PUBLIC "-//W3C//DTD SVG 1.1//EN" "http://www.w3.org/Graphics/SVG/1.1/DTD/svg11.dtd">
<svg version="1.1" id="Layer_1" xmlns="http://www.w3.org/2000/svg" xmlns:xlink="http://www.w3.org/1999/xlink" x="0px" y="0px"
	 width="200px" height="117.342px" viewBox="0 0 200 117.342" enable-background="new 0 0 200 117.342" xml:space="preserve">
<g>
	<g>
		<path fill="#FDFDFE" d="M51.443,7.183l1.058,12.609c2.998-4.585,6.775-8.127,11.331-10.625s9.773-3.747,15.651-3.747
			c5.937,0,11.051,1.293,15.343,3.88c4.291,2.586,7.524,6.525,9.699,11.816c2.939-4.997,6.716-8.862,11.331-11.595
			s10.008-4.1,16.18-4.1c9.288,0,16.592,3.189,21.912,9.567s7.98,16.21,7.98,29.495v58.108h-29.892V44.481
			c0-6.172-0.955-10.405-2.866-12.697c-1.91-2.293-4.776-3.439-8.597-3.439c-2.88,0-5.423,0.514-7.627,1.543
			s-4.071,2.454-5.599,4.277c0,0.999,0.029,1.866,0.088,2.601c0.059,0.735,0.088,1.455,0.088,2.16v63.663H77.719V44.481
			c0-6.172-0.941-10.405-2.822-12.697s-4.791-3.439-8.729-3.439c-2.704,0-5.158,0.514-7.363,1.543
			c-2.204,1.029-4.071,2.454-5.599,4.277v68.424H23.403V7.183H51.443z"/>
	</g>
	<circle fill="#64C8D1" cx="149.859" cy="86.106" r="26.677"/>
</g>
</svg>
