<?xml version="1.0" encoding="utf-8"?>
<!-- Generator: Adobe Illustrator 21.1.0, SVG Export Plug-In . SVG Version: 6.00 Build 0)  -->
<svg version="1.1" id="Layer_1" xmlns="http://www.w3.org/2000/svg" xmlns:xlink="http://www.w3.org/1999/xlink" x="0px" y="0px"
	 width="33px" height="23.9px" viewBox="0 0 33 23.9" style="enable-background:new 0 0 33 23.9;" xml:space="preserve">
<style type="text/css">
	.st0{fill:#68C4CD;}
</style>
<g>
	<g>
		<path class="st0" d="M16.5,16.6l-4.1-3.6L0.8,23c0.4,0.4,1,0.6,1.6,0.6h28.2c0.6,0,1.2-0.2,1.6-0.6l-11.6-10L16.5,16.6z"/>
		<path class="st0" d="M32.2,0.8c-0.4-0.4-1-0.6-1.6-0.6H2.4c-0.6,0-1.2,0.2-1.6,0.6l15.7,13.5L32.2,0.8z"/>
		<path class="st0" d="M0,2.2v19.5l11.4-9.7L0,2.2z"/>
		<path class="st0" d="M21.6,12.1L33,21.8V2.2L21.6,12.1z"/>
	</g>
</g>
</svg>
