<?xml version="1.0" encoding="utf-8"?>
<!-- Generator: Adobe Illustrator 17.0.0, SVG Export Plug-In . SVG Version: 6.00 Build 0)  -->
<!DOCTYPE svg PUBLIC "-//W3C//DTD SVG 1.1//EN" "http://www.w3.org/Graphics/SVG/1.1/DTD/svg11.dtd">
<svg version="1.1" id="Layer_1" xmlns="http://www.w3.org/2000/svg" xmlns:xlink="http://www.w3.org/1999/xlink" x="0px" y="0px"
	 width="288px" height="288px" viewBox="0 0 288 288" enable-background="new 0 0 288 288" xml:space="preserve">
<g>
	<g>
		<g>
			<path fill="#03BFC2" d="M201.422,83.893l-0.176-1.352c1.022-0.134,1.932-0.657,2.561-1.476c0.629-0.818,0.901-1.833,0.768-2.855
				c-0.134-1.023-0.658-1.934-1.476-2.562c-0.817-0.629-1.83-0.902-2.855-0.768l-0.177-1.352c1.384-0.184,2.755,0.187,3.862,1.038
				c1.107,0.851,1.816,2.081,1.997,3.466c0.181,1.384-0.188,2.756-1.038,3.862C204.037,83.003,202.806,83.712,201.422,83.893z"/>
		</g>
		<g>
			<path fill="#03BFC2" d="M72.371,227.686c-0.684,0-1.371-0.095-2.047-0.287c-1.915-0.544-3.503-1.8-4.472-3.538l1.697-0.947
				c0.716,1.285,1.89,2.214,3.306,2.616c1.414,0.401,2.903,0.229,4.187-0.488c2.652-1.479,3.607-4.84,2.129-7.491l1.697-0.947
				c2,3.589,0.709,8.136-2.879,10.136C74.864,227.367,73.624,227.686,72.371,227.686z"/>
		</g>
		<g>
			<path fill="#03BFC2" d="M245.171,182.307c-3.098-2.813-3.33-7.624-0.517-10.722c2.814-3.098,7.624-3.328,10.722-0.518
				l-1.331,1.467c-2.29-2.078-5.845-1.909-7.925,0.382c-2.079,2.29-1.908,5.846,0.382,7.926L245.171,182.307z"/>
		</g>
		<g>
			<path fill="#03BFC2" d="M82.548,21.482c-0.983,0-1.921-0.354-2.663-1.013c-0.803-0.713-1.28-1.695-1.344-2.768
				c-0.064-1.071,0.293-2.104,1.006-2.907c0.713-0.803,1.696-1.28,2.768-1.345l0.063,1.047c-0.792,0.047-1.519,0.4-2.045,0.994
				c-0.527,0.594-0.791,1.357-0.744,2.149c0.047,0.793,0.4,1.519,0.994,2.046c0.593,0.526,1.356,0.79,2.149,0.743l0.063,1.047
				C82.711,21.48,82.629,21.482,82.548,21.482z"/>
		</g>
		<g>
			<path fill="#03BFC2" d="M279.035,156.811l-0.829-1.137c0.859-0.627,1.423-1.551,1.587-2.602c0.164-1.052-0.091-2.105-0.718-2.965
				c-1.296-1.772-3.794-2.164-5.568-0.868l-0.829-1.137c2.4-1.752,5.78-1.224,7.533,1.176c0.849,1.163,1.194,2.588,0.972,4.011
				C280.961,154.711,280.198,155.962,279.035,156.811z"/>
		</g>
		<g>
			<path fill="#03BFC2" d="M163.554,184.728l-1.146-1.781c2.784-1.791,3.593-5.514,1.802-8.298
				c-1.792-2.785-5.513-3.595-8.297-1.802l-1.146-1.783c3.766-2.42,8.802-1.327,11.225,2.439
				C168.414,177.27,167.321,182.305,163.554,184.728z"/>
		</g>
		<g>
			<path fill="#03BFC2" d="M12.406,36.907c-1.377,0-2.725-0.685-3.511-1.935l0.914-0.574c0.435,0.691,1.114,1.172,1.911,1.354
				c0.795,0.182,1.617,0.041,2.309-0.394c1.428-0.898,1.859-2.792,0.96-4.221l0.914-0.574c1.216,1.933,0.633,4.493-1.299,5.709
				C13.921,36.702,13.159,36.907,12.406,36.907z"/>
		</g>
		<g>
			<path fill="#03BFC2" d="M268.644,60.181c-0.897-1.122-1.303-2.525-1.144-3.952c0.159-1.428,0.864-2.708,1.986-3.604
				c2.315-1.85,5.705-1.474,7.557,0.842l-1.096,0.875c-1.368-1.711-3.873-1.99-5.585-0.621c-0.829,0.663-1.35,1.608-1.468,2.664
				c-0.118,1.055,0.183,2.092,0.846,2.92L268.644,60.181z"/>
		</g>
		<g>
			<path fill="#03BFC2" d="M121.902,181.641c-3.608-2.979-4.122-8.337-1.145-11.944c1.442-1.748,3.479-2.83,5.735-3.047
				c2.259-0.214,4.462,0.46,6.21,1.901l-1.409,1.707c-1.292-1.066-2.92-1.567-4.589-1.405c-1.668,0.16-3.173,0.96-4.239,2.252
				c-2.201,2.667-1.821,6.628,0.847,8.829L121.902,181.641z"/>
		</g>
		<path fill="#03BFC2" d="M239.092,19.586L239.092,19.586c1.214,0,2.308,0.672,2.856,1.754c0.386,0.762,0.452,1.629,0.186,2.44
			c-0.266,0.813-0.832,1.471-1.594,1.857c-0.454,0.229-0.939,0.346-1.441,0.346c-1.214,0-2.308-0.672-2.855-1.754
			c-0.796-1.572-0.165-3.5,1.409-4.297C238.105,19.703,238.59,19.586,239.092,19.586 M239.092,18.161
			c-0.702,0-1.415,0.16-2.084,0.499c-2.279,1.154-3.19,3.936-2.037,6.214c0.815,1.608,2.44,2.535,4.128,2.535
			c0.702,0,1.415-0.16,2.085-0.5c2.278-1.152,3.19-3.935,2.036-6.213C242.407,19.087,240.78,18.161,239.092,18.161L239.092,18.161z"
			/>
		<path fill="#03BFC2" d="M56.719,109.377L56.719,109.377c0.09,0,0.181,0.005,0.273,0.014c0.683,0.072,1.296,0.406,1.729,0.94
			c0.432,0.533,0.63,1.203,0.558,1.885c-0.138,1.313-1.235,2.301-2.551,2.301c-0.09,0-0.182-0.005-0.273-0.014
			c-1.409-0.148-2.434-1.416-2.286-2.824C54.306,110.366,55.403,109.377,56.719,109.377 M56.719,108.231
			c-1.876,0-3.49,1.419-3.69,3.326c-0.215,2.041,1.266,3.869,3.306,4.084c0.132,0.015,0.264,0.022,0.393,0.022
			c1.878,0,3.49-1.419,3.691-3.326c0.215-2.041-1.265-3.869-3.306-4.084C56.98,108.238,56.849,108.231,56.719,108.231
			L56.719,108.231z"/>
		<path fill="#03BFC2" d="M259.909,89.9c1.188,0,2.249,0.798,2.58,1.939c0.413,1.424-0.409,2.919-1.833,3.331
			c-0.246,0.072-0.499,0.108-0.751,0.108c-1.187,0-2.248-0.798-2.58-1.939c-0.413-1.424,0.409-2.919,1.832-3.331
			C259.403,89.936,259.656,89.9,259.909,89.9 M259.908,88.701c-0.358,0-0.723,0.05-1.085,0.155c-2.063,0.599-3.248,2.756-2.65,4.817
			c0.494,1.7,2.046,2.805,3.731,2.805c0.359,0,0.724-0.05,1.086-0.155c2.061-0.599,3.248-2.756,2.65-4.817
			C263.147,89.806,261.594,88.701,259.908,88.701L259.908,88.701z"/>
		<path fill="#03BFC2" d="M124.928,16.784L124.928,16.784c0.575,0,1.134,0.123,1.664,0.363c0.979,0.445,1.725,1.244,2.103,2.252
			c0.377,1.007,0.34,2.101-0.105,3.078c-0.652,1.434-2.092,2.361-3.668,2.361c-0.574,0-1.134-0.122-1.663-0.363
			c-2.021-0.918-2.918-3.31-1.999-5.33C121.912,17.71,123.352,16.784,124.928,16.784 M124.928,14.989
			c-2.212,0-4.327,1.268-5.303,3.412c-1.331,2.927-0.038,6.378,2.89,7.709c0.782,0.355,1.6,0.523,2.406,0.523
			c2.212,0,4.328-1.268,5.303-3.412c1.331-2.926,0.037-6.379-2.889-7.709C126.554,15.157,125.734,14.989,124.928,14.989
			L124.928,14.989z"/>
		<path fill="#03BFC2" d="M202.199,138.588L202.199,138.588c0.169,0,0.34,0.014,0.508,0.043c1.606,0.278,2.687,1.811,2.409,3.418
			c-0.246,1.421-1.469,2.453-2.909,2.453c-0.169,0-0.34-0.016-0.508-0.044c-1.606-0.278-2.688-1.811-2.41-3.417
			C199.536,139.619,200.759,138.588,202.199,138.588 M202.199,137.269c-2.042,0-3.848,1.468-4.209,3.547
			c-0.402,2.327,1.157,4.539,3.484,4.942c0.247,0.042,0.492,0.063,0.733,0.063c2.042,0,3.848-1.467,4.208-3.547
			c0.402-2.326-1.158-4.539-3.484-4.941C202.686,137.289,202.441,137.269,202.199,137.269L202.199,137.269z"/>
		<path fill="#03BFC2" d="M54.173,144.896L54.173,144.896c0.785,0,1.527,0.257,2.147,0.742c0.732,0.574,1.197,1.399,1.31,2.324
			c0.112,0.925-0.143,1.837-0.717,2.569c-0.665,0.849-1.666,1.336-2.747,1.336c-0.785,0-1.527-0.258-2.147-0.743
			c-1.513-1.186-1.779-3.381-0.594-4.893C52.091,145.382,53.093,144.896,54.173,144.896 M54.173,143.34
			c-1.496,0-2.977,0.664-3.971,1.932c-1.717,2.191-1.333,5.359,0.858,7.076c0.922,0.724,2.018,1.074,3.106,1.074
			c1.496,0,2.976-0.663,3.971-1.932c1.717-2.19,1.333-5.359-0.858-7.076C56.356,143.692,55.261,143.34,54.173,143.34L54.173,143.34z
			"/>
		<path fill="#03BFC2" d="M21.465,263.057L21.465,263.057c0.768,0,1.473,0.35,1.937,0.959c0.393,0.517,0.561,1.155,0.473,1.799
			c-0.087,0.643-0.42,1.213-0.937,1.606c-0.426,0.324-0.934,0.496-1.468,0.496c-0.767,0-1.473-0.35-1.937-0.96
			c-0.393-0.517-0.561-1.155-0.474-1.799c0.087-0.643,0.42-1.213,0.937-1.605C20.424,263.228,20.931,263.057,21.465,263.057
			 M21.465,261.973c-0.741,0-1.489,0.233-2.124,0.717c-1.545,1.174-1.845,3.379-0.67,4.924c0.691,0.909,1.739,1.388,2.8,1.388
			c0.741,0,1.489-0.234,2.124-0.718c1.544-1.174,1.845-3.379,0.67-4.924C23.574,262.451,22.526,261.973,21.465,261.973
			L21.465,261.973z"/>
		<path fill="#03BFC2" d="M139.026,70.269L139.026,70.269c1.842,0,3.504,1.164,4.136,2.896c0.831,2.28-0.348,4.812-2.628,5.643
			c-0.487,0.178-0.994,0.268-1.506,0.268c-1.843,0-3.505-1.164-4.137-2.896c-0.403-1.105-0.351-2.301,0.146-3.367
			c0.497-1.064,1.378-1.873,2.483-2.276C138.006,70.359,138.513,70.269,139.026,70.269 M139.025,68.305
			c-0.724,0-1.46,0.125-2.179,0.387c-3.303,1.203-5.005,4.856-3.801,8.16c0.941,2.584,3.382,4.188,5.981,4.188
			c0.723,0,1.46-0.125,2.178-0.387c3.302-1.203,5.004-4.857,3.801-8.16C144.064,69.909,141.624,68.305,139.025,68.305
			L139.025,68.305z"/>
		<path fill="#03BFC2" d="M140.406,254.368L140.406,254.368c0.385,0,0.757,0.088,1.107,0.26c0.601,0.296,1.051,0.809,1.267,1.443
			c0.215,0.635,0.171,1.314-0.124,1.915c-0.426,0.865-1.29,1.402-2.254,1.402c-0.385,0-0.757-0.087-1.105-0.259
			c-1.241-0.612-1.754-2.12-1.143-3.36C138.578,254.905,139.442,254.368,140.406,254.368 M140.406,253.248
			c-1.338,0-2.626,0.744-3.257,2.025c-0.885,1.798-0.146,3.973,1.652,4.859c0.516,0.254,1.062,0.374,1.6,0.374
			c1.338,0,2.626-0.744,3.258-2.026c0.885-1.797,0.146-3.973-1.651-4.857C141.491,253.369,140.944,253.248,140.406,253.248
			L140.406,253.248z"/>
		<path fill="#03BFC2" d="M106.468,52.041l4.067,4.496l-6.038,0.556l-4.067-4.497L106.468,52.041 M107.075,50.486l-9.757,0.896
			l6.572,7.267l9.756-0.897L107.075,50.486L107.075,50.486z"/>
		<path fill="#03BFC2" d="M16.329,196.509l4.165,4.408l-1.028,5.978l-4.164-4.409L16.329,196.509 M15.363,193.311l-1.66,9.658
			l6.729,7.124l1.661-9.659L15.363,193.311L15.363,193.311z"/>
		<path fill="#03BFC2" d="M238.888,258.613l8.074,3.997l1.648,8.856l-8.075-3.996L238.888,258.613 M235.893,254.654l2.663,14.313
			l13.048,6.457l-2.663-14.311L235.893,254.654L235.893,254.654z"/>
		<path fill="#03BFC2" d="M57.372,48.958l4.409,1.554l1.403,4.459l-4.409-1.554L57.372,48.958 M55.582,47.106l2.267,7.207
			l7.125,2.51l-2.267-7.205L55.582,47.106L55.582,47.106z"/>
		<path fill="#03BFC2" d="M142.457,200.929l0.633,5.332l-3.885,3.706l-0.634-5.332L142.457,200.929 M143.459,198.145l-6.279,5.989
			l1.024,8.616l6.278-5.988L143.459,198.145L143.459,198.145z"/>
		<path fill="#03BFC2" d="M87.021,145.349l4.257,2.358l0.668,4.82l-4.257-2.357L87.021,145.349 M85.504,143.138l1.079,7.79
			l6.88,3.811l-1.079-7.789L85.504,143.138L85.504,143.138z"/>
		<path fill="#03BFC2" d="M104.712,268.38l-1.991,4.077l-4.457,0.854l1.991-4.077L104.712,268.38 M106.698,266.862l-7.202,1.38
			l-3.217,6.589l7.201-1.38L106.698,266.862L106.698,266.862z"/>
		<path fill="#03BFC2" d="M152.474,117.172l-5.024,7.547l-9.053,0.508l5.026-7.547L152.474,117.172 M156.81,114.692l-14.627,0.821
			l-8.122,12.194l14.629-0.82L156.81,114.692L156.81,114.692z"/>
		<path fill="#03BFC2" d="M36.969,14.646l5.935,6.171l-1.375,8.451l-5.936-6.171L36.969,14.646 M35.564,10.142l-2.223,13.657
			l9.592,9.973l2.222-13.656L35.564,10.142L35.564,10.142z"/>
		<g>
			<path fill="#03BFC2" d="M19.697,73.68c-0.146,0-0.293-0.031-0.433-0.097c-0.513-0.239-0.734-0.85-0.495-1.362
				c0.558-1.194,1.535-2.06,2.752-2.438c1.217-0.377,2.511-0.217,3.644,0.448c0.63,0.37,1.34,0.46,1.998,0.256
				c0.659-0.205,1.192-0.683,1.502-1.346c0.558-1.193,1.536-2.059,2.753-2.437c1.215-0.378,2.51-0.219,3.643,0.448
				c0.488,0.287,0.651,0.915,0.364,1.403c-0.287,0.489-0.916,0.65-1.403,0.364c-0.63-0.371-1.339-0.463-1.996-0.258
				c-0.659,0.205-1.194,0.684-1.504,1.348c-0.557,1.191-1.534,2.056-2.75,2.434c-1.215,0.379-2.51,0.221-3.645-0.445
				c-0.632-0.37-1.34-0.461-1.997-0.259c-0.659,0.205-1.192,0.684-1.503,1.348C20.452,73.461,20.083,73.68,19.697,73.68z"/>
		</g>
		<g>
			<path fill="#03BFC2" d="M220.912,117.626c-0.009,0-0.017,0-0.026-0.001c-0.369-0.014-0.657-0.324-0.643-0.693
				c0.019-0.475-0.148-0.911-0.469-1.225c-0.321-0.316-0.757-0.476-1.24-0.447c-0.856,0.042-1.655-0.245-2.249-0.827
				c-0.593-0.582-0.903-1.375-0.872-2.232c0.018-0.477-0.148-0.912-0.469-1.227c-0.322-0.316-0.763-0.471-1.24-0.447
				c-0.367-0.004-0.685-0.262-0.705-0.63c-0.021-0.369,0.261-0.685,0.63-0.706c0.86-0.04,1.658,0.245,2.252,0.828
				c0.592,0.582,0.901,1.374,0.869,2.231c-0.018,0.476,0.15,0.912,0.472,1.228c0.321,0.314,0.758,0.469,1.237,0.446
				c0.868-0.038,1.659,0.245,2.253,0.829c0.592,0.582,0.901,1.374,0.868,2.23C221.566,117.343,221.269,117.626,220.912,117.626z"/>
		</g>
		<g>
			<path fill="#03BFC2" d="M206.477,245.72c-0.331,0-0.602-0.267-0.606-0.599c-0.004-0.335,0.264-0.61,0.599-0.614
				c0.432-0.005,0.818-0.176,1.088-0.48c0.271-0.306,0.395-0.712,0.348-1.143c-0.083-0.774,0.146-1.511,0.646-2.075
				c0.499-0.563,1.203-0.881,1.981-0.892c0.433-0.005,0.819-0.176,1.09-0.481c0.271-0.305,0.394-0.71,0.348-1.141
				c-0.036-0.333,0.204-0.632,0.537-0.668c0.332-0.044,0.632,0.204,0.668,0.537c0.084,0.774-0.145,1.512-0.645,2.076
				c-0.5,0.563-1.203,0.88-1.981,0.89c-0.432,0.006-0.819,0.178-1.09,0.483c-0.271,0.306-0.394,0.71-0.348,1.141
				c0.084,0.774-0.146,1.513-0.647,2.076c-0.5,0.564-1.203,0.88-1.98,0.89C206.482,245.72,206.479,245.72,206.477,245.72z"/>
		</g>
		<g>
			<path fill="#03BFC2" d="M50.201,193.938c-0.21,0-0.422-0.069-0.599-0.212c-0.954-0.771-1.518-1.848-1.587-3.032
				c-0.069-1.183,0.364-2.316,1.219-3.191c0.474-0.486,0.715-1.108,0.677-1.749c-0.038-0.642-0.351-1.23-0.88-1.658
				c-0.954-0.77-1.518-1.848-1.587-3.033c-0.069-1.183,0.364-2.316,1.22-3.191c0.37-0.378,0.974-0.383,1.349-0.015
				c0.377,0.368,0.383,0.972,0.015,1.349c-0.476,0.486-0.716,1.106-0.679,1.746c0.038,0.642,0.351,1.231,0.882,1.66
				c0.953,0.77,1.516,1.846,1.585,3.029c0.07,1.184-0.361,2.318-1.216,3.195c-0.476,0.487-0.717,1.106-0.68,1.747
				c0.038,0.641,0.351,1.23,0.882,1.659c0.41,0.331,0.474,0.932,0.143,1.342C50.756,193.817,50.48,193.938,50.201,193.938z"/>
		</g>
		<g>
			<path fill="#03BFC2" d="M60.541,261.504c-1.137,0-2.214-0.375-3.094-1.09c-1.083-0.879-1.724-2.155-1.805-3.594
				c-0.046-0.798-0.395-1.5-0.981-1.976c-0.587-0.477-1.346-0.674-2.138-0.552c-1.428,0.213-2.812-0.148-3.896-1.03
				c-1.083-0.879-1.723-2.155-1.803-3.593c-0.034-0.619,0.439-1.149,1.059-1.184c0.624-0.029,1.149,0.439,1.184,1.059
				c0.044,0.799,0.391,1.5,0.977,1.976c0.588,0.478,1.35,0.674,2.143,0.552c1.425-0.213,2.806,0.149,3.889,1.028
				c1.084,0.879,1.726,2.154,1.809,3.593c0.045,0.801,0.392,1.502,0.978,1.978c0.587,0.477,1.346,0.675,2.141,0.552
				c0.612-0.096,1.185,0.329,1.278,0.941c0.093,0.613-0.328,1.186-0.941,1.279C61.072,261.484,60.805,261.504,60.541,261.504z"/>
		</g>
		<g>
			<path fill="#03BFC2" d="M13.877,108.391c-0.04,0-0.08-0.001-0.119-0.002c-0.42-0.014-0.749-0.365-0.735-0.784
				c0.013-0.42,0.361-0.74,0.784-0.735c0.551,0.025,1.036-0.174,1.391-0.541c0.356-0.367,0.534-0.867,0.5-1.409
				c-0.06-0.976,0.269-1.886,0.927-2.563c0.657-0.678,1.561-1.025,2.529-1.004c0.546,0.014,1.036-0.174,1.392-0.541
				c0.356-0.367,0.534-0.868,0.5-1.411c-0.026-0.419,0.292-0.779,0.711-0.806c0.421-0.03,0.779,0.293,0.806,0.712
				c0.061,0.975-0.268,1.886-0.927,2.563c-0.657,0.677-1.563,1.03-2.53,1.002c-0.539-0.027-1.035,0.175-1.39,0.542
				c-0.356,0.368-0.534,0.869-0.501,1.411c0.062,0.974-0.267,1.884-0.925,2.563C15.658,108.036,14.805,108.391,13.877,108.391z"/>
		</g>
		<g>
			<path fill="#03BFC2" d="M106.156,115.52c-0.596,0-1.179-0.149-1.708-0.443c-0.882-0.49-1.5-1.318-1.739-2.333
				c-0.134-0.563-0.471-1.021-0.95-1.286c-0.478-0.265-1.044-0.31-1.594-0.123c-0.991,0.335-2.022,0.249-2.906-0.243
				c-0.883-0.49-1.501-1.319-1.739-2.334c-0.103-0.438,0.168-0.875,0.605-0.978c0.44-0.1,0.875,0.169,0.977,0.604
				c0.133,0.564,0.469,1.021,0.947,1.286c0.478,0.265,1.044,0.311,1.596,0.123c0.987-0.334,2.019-0.247,2.903,0.242
				c0.884,0.49,1.503,1.319,1.743,2.334c0.133,0.565,0.469,1.021,0.946,1.286c0.479,0.266,1.046,0.311,1.597,0.123
				c0.426-0.141,0.887,0.087,1.03,0.511c0.144,0.425-0.085,0.887-0.51,1.03C106.956,115.453,106.554,115.52,106.156,115.52z"/>
		</g>
		<g>
			<path fill="#03BFC2" d="M21.085,151.636c-0.254,0-0.508-0.098-0.7-0.294c-0.881-0.9-1.328-2.065-1.258-3.282
				c0.07-1.215,0.647-2.319,1.624-3.11c0.542-0.439,0.861-1.045,0.899-1.703s-0.211-1.296-0.7-1.795
				c-0.882-0.9-1.329-2.066-1.258-3.283c0.071-1.216,0.647-2.32,1.625-3.11c0.421-0.34,1.037-0.274,1.378,0.145
				c0.34,0.421,0.275,1.037-0.146,1.378c-0.543,0.439-0.862,1.043-0.9,1.7c-0.038,0.659,0.211,1.298,0.702,1.799
				c0.879,0.897,1.326,2.062,1.256,3.277c-0.069,1.216-0.646,2.322-1.622,3.114c-0.543,0.44-0.863,1.044-0.901,1.701
				c-0.038,0.658,0.211,1.297,0.702,1.798c0.378,0.387,0.372,1.007-0.015,1.386C21.58,151.543,21.333,151.636,21.085,151.636z"/>
		</g>
		<g>
			<path fill="#03BFC2" d="M163.959,53.671c-0.496,0-0.999-0.09-1.489-0.271c-0.487-0.18-0.737-0.721-0.557-1.208
				c0.18-0.488,0.721-0.738,1.208-0.558c0.629,0.231,1.284,0.198,1.845-0.093c0.563-0.293,0.968-0.813,1.14-1.464
				c0.309-1.167,1.05-2.107,2.087-2.647c1.039-0.541,2.233-0.609,3.367-0.193c0.63,0.232,1.286,0.2,1.847-0.091
				c0.562-0.293,0.966-0.813,1.139-1.463c0.133-0.502,0.65-0.802,1.15-0.67c0.503,0.133,0.802,0.648,0.669,1.15
				c-0.309,1.17-1.051,2.112-2.09,2.652c-1.038,0.537-2.232,0.606-3.365,0.188c-0.63-0.23-1.287-0.196-1.848,0.096
				c-0.562,0.293-0.966,0.812-1.138,1.461c-0.309,1.17-1.052,2.111-2.091,2.651C165.247,53.518,164.608,53.671,163.959,53.671z"/>
		</g>
		<g>
			<path fill="#03BFC2" d="M215.662,164.307c-0.135,0-0.27-0.048-0.376-0.146l-3.63-3.329c-0.227-0.208-0.242-0.56-0.034-0.786
				c0.208-0.227,0.56-0.243,0.787-0.034l3.63,3.329c0.227,0.208,0.242,0.56,0.034,0.786
				C215.963,164.246,215.813,164.307,215.662,164.307z"/>
		</g>
		<g>
			<path fill="#03BFC2" d="M96.885,190.857c-0.162,0-0.324-0.067-0.44-0.198l-3.438-3.891c-0.214-0.243-0.191-0.614,0.051-0.828
				c0.243-0.214,0.613-0.191,0.829,0.051l3.438,3.891c0.214,0.243,0.191,0.614-0.051,0.828
				C97.162,190.808,97.023,190.857,96.885,190.857z"/>
		</g>
		<g>
			<path fill="#03BFC2" d="M72.722,82.633c-0.318,0-0.606-0.219-0.681-0.542c-0.087-0.376,0.147-0.751,0.524-0.838l6.024-1.393
				c0.371-0.092,0.751,0.146,0.838,0.523c0.087,0.376-0.147,0.751-0.524,0.838l-6.024,1.393
				C72.827,82.627,72.775,82.633,72.722,82.633z"/>
		</g>
		<g>
			<path fill="#03BFC2" d="M197.806,29.529c-0.3,0-0.571-0.204-0.645-0.508c-0.085-0.356,0.134-0.715,0.49-0.8l5.705-1.371
				c0.355-0.088,0.714,0.134,0.8,0.489c0.085,0.356-0.134,0.715-0.49,0.8l-5.705,1.371
				C197.909,29.523,197.857,29.529,197.806,29.529z"/>
		</g>
		<g>
			<path fill="#03BFC2" d="M273.623,251.982c-0.275,0-0.524-0.188-0.591-0.467l-1.249-5.234c-0.078-0.327,0.124-0.655,0.451-0.733
				c0.323-0.077,0.655,0.123,0.733,0.45l1.249,5.234c0.078,0.327-0.124,0.655-0.451,0.733
				C273.718,251.976,273.67,251.982,273.623,251.982z"/>
		</g>
		<g>
			<path fill="#03BFC2" d="M175.325,257.904c-0.226,0-0.441-0.13-0.539-0.35l-2.114-4.76c-0.132-0.298,0.002-0.646,0.299-0.777
				c0.297-0.132,0.645,0.002,0.777,0.299l2.114,4.76c0.132,0.298-0.002,0.646-0.299,0.777
				C175.486,257.887,175.405,257.904,175.325,257.904z"/>
		</g>
		<g>
			<path fill="#03BFC2" d="M173.006,220.727c-0.518,0-0.951-0.403-0.982-0.927c-0.032-0.543,0.382-1.009,0.925-1.041l8.694-0.51
				c0.548-0.024,1.009,0.383,1.04,0.926c0.032,0.543-0.382,1.009-0.925,1.041l-8.694,0.51
				C173.045,220.727,173.025,220.727,173.006,220.727z"/>
		</g>
		<g>
			<path fill="#03BFC2" d="M116.065,232.585c-0.226,0-0.434-0.147-0.502-0.375l-1.307-4.436c-0.082-0.276,0.077-0.567,0.354-0.648
				c0.274-0.084,0.567,0.077,0.649,0.354l1.307,4.436c0.082,0.276-0.077,0.567-0.354,0.648
				C116.163,232.578,116.114,232.585,116.065,232.585z"/>
		</g>
		<g>
			<path fill="#03BFC2" d="M278.766,201.211c-0.034,0-0.069-0.002-0.104-0.007l-7.578-0.908c-0.473-0.057-0.811-0.486-0.754-0.959
				c0.057-0.474,0.492-0.815,0.96-0.754l7.578,0.908c0.473,0.057,0.811,0.486,0.754,0.959
				C279.57,200.889,279.197,201.211,278.766,201.211z"/>
		</g>
		<g>
			<polygon fill="#03BFC2" points="241.307,142.123 239.72,140.545 247.736,132.482 255.799,140.499 254.22,142.087 247.745,135.65 
							"/>
		</g>
		<g>
			<polygon fill="#03BFC2" points="206.602,205.125 205.162,204.303 208.519,198.435 202.652,195.079 203.475,193.64 
				210.782,197.82 			"/>
		</g>
		<g>
			<polygon fill="#03BFC2" points="159.901,283.333 155.548,277.247 156.746,276.39 160.242,281.277 165.128,277.78 
				165.986,278.979 			"/>
		</g>
		<g>
			<polygon fill="#03BFC2" points="234.437,61.828 226.446,60.32 227.955,52.328 229.53,52.625 228.317,59.042 234.734,60.254 			
				"/>
		</g>
		<g>
			<polygon fill="#03BFC2" points="167.99,20.052 160.184,13.509 161.473,11.972 167.741,17.226 172.995,10.957 174.532,12.246 			
				"/>
		</g>
		<g>
			<polygon fill="#03BFC2" points="174.512,102.925 173.514,97.2 167.789,98.199 167.544,96.794 174.674,95.551 175.916,102.681 			
				"/>
		</g>
		<g>
			<polygon fill="#03BFC2" points="275.098,23.44 268.853,18.489 269.828,17.258 274.844,21.235 278.82,16.218 280.05,17.193 			"/>
		</g>
		<g>
			<polygon fill="#03BFC2" points="207.407,279.333 204.362,273.623 198.652,276.668 197.905,275.268 205.016,271.477 
				208.807,278.587 			"/>
		</g>
		<g>
			<polygon fill="#03BFC2" points="242.782,216.673 234.961,208.919 236.488,207.378 242.768,213.605 248.994,207.324 
				250.535,208.851 			"/>
		</g>
	</g>
</g>
</svg>
