<?xml version="1.0" encoding="utf-8"?>
<!-- Generator: Adobe Illustrator 21.1.0, SVG Export Plug-In . SVG Version: 6.00 Build 0)  -->
<svg version="1.1" id="Layer_1" xmlns="http://www.w3.org/2000/svg" xmlns:xlink="http://www.w3.org/1999/xlink" x="0px" y="0px"
	 width="33px" height="33px" viewBox="0 0 33 33" style="enable-background:new 0 0 33 33;" xml:space="preserve">
<style type="text/css">
	.st0{fill:#68C4CD;}
</style>
<g>
	<g>
		<path class="st0" d="M32,25.9l-5-5c-1-1-2.7-1-3.7,0.1l-2.5,2.5c-0.2-0.1-0.3-0.2-0.5-0.3c-1.6-0.9-3.8-2.1-6.1-4.4
			c-2.3-2.3-3.5-4.5-4.4-6.1c-0.1-0.2-0.2-0.3-0.3-0.5l1.7-1.7l0.8-0.8c1-1,1.1-2.7,0.1-3.7l-5-5c-1-1-2.7-1-3.7,0.1L2,2.5l0,0
			C1.6,3.1,1.2,3.8,0.9,4.6C0.6,5.3,0.4,6,0.3,6.7C-0.3,12.2,2.2,17.2,9,24c9.4,9.4,17,8.7,17.4,8.7c0.7-0.1,1.4-0.3,2.1-0.5
			c0.7-0.3,1.4-0.7,2-1.2l0,0l1.4-1.4C33,28.6,33,26.9,32,25.9L32,25.9z"/>
	</g>
</g>
</svg>
