<?xml version="1.0" encoding="UTF-8"?>
<!DOCTYPE svg PUBLIC "-//W3C//DTD SVG 1.1//EN" "http://www.w3.org/Graphics/SVG/1.1/DTD/svg11.dtd">
<!-- Creator: CorelDRAW X7 -->
<svg xmlns="http://www.w3.org/2000/svg" xml:space="preserve" width="8.4666mm" height="7.4885mm" version="1.1" style="shape-rendering:geometricPrecision; text-rendering:geometricPrecision; image-rendering:optimizeQuality; fill-rule:evenodd; clip-rule:evenodd"
viewBox="0 0 65 58"
 xmlns:xlink="http://www.w3.org/1999/xlink">
 <defs>
  <style type="text/css">
   <![CDATA[
    .fil0 {fill:url(#id0)}
   ]]>
  </style>
  <linearGradient id="id0" gradientUnits="userSpaceOnUse" x1="-2.76912" y1="32.4411" x2="72.3865" y2="32.4372">
   <stop offset="0" style="stop-opacity:1; stop-color:#56AF3A"/>
   <stop offset="1" style="stop-opacity:1; stop-color:#B7CD1B"/>
  </linearGradient>
 </defs>
 <g id="Layer_x0020_1">
  <metadata id="CorelCorpID_0Corel-Layer"/>
  <path class="fil0" d="M33 40l20 -3c1,0 1,0 1,0l2 12c0,0 0,1 0,1l-21 3c0,0 -1,0 -1,0l-2 -12c0,0 1,-1 1,-1zm6 5c-1,0 -1,1 -1,3 0,1 1,2 2,2 1,-1 1,-1 2,-1 0,0 0,0 0,0l0 0 1 0 -1 -7 -2 0 1 3c-1,-1 -1,-1 -2,0zm2 1l0 2c0,0 0,0 -1,0 0,1 -1,0 -1,-1 0,-1 0,-1 1,-2 0,0 1,0 1,1l0 0zm4 -1l0 0c0,-1 0,-1 0,-1l-2 0 1 5 1 0 0 -4 2 0c0,0 0,-1 0,-1 0,-1 0,-1 -1,-1 0,0 -1,1 -1,2zm3 -1l1 4 1 0c0,-1 -1,-4 -1,-4l2 0 -1 -1 -1 0 0 -1c0,0 0,0 1,0 0,-1 0,-1 0,-1l0 -1c0,0 -1,1 -1,1 -1,0 -2,1 -1,2l0 0 -1 0 0 1 1 0zm-37 0l-1 1c-2,1 -5,3 -6,5 3,-1 6,-1 8,-1 1,0 1,0 1,0 5,-2 11,-2 13,1 1,2 0,4 -2,5 0,1 -2,1 -3,1 8,1 15,0 22,-2 7,-1 13,-2 20,-1 1,0 2,1 2,2 0,0 0,0 0,0l-2 0c-6,-2 -14,0 -20,1 -7,1 -15,2 -25,2 -1,0 -2,-1 -3,-1 -1,0 -3,0 -3,0l0 0c-4,0 -8,-1 -10,-2 -1,0 -2,-1 -2,-1 0,-1 0,-1 0,-2 1,0 1,-1 2,-1 1,-3 5,-5 7,-7l1 -1c-1,0 -1,-1 0,-1l2 -4 -1 -1 0 0 0 -1 19 -20c-1,-1 -1,-1 -1,-1 0,-1 0,-1 1,-1l1 -1 0 0c0,-2 1,-3 3,-5l0 1 0 -1c1,-2 2,-4 3,-5 2,-2 4,-3 7,-3 3,0 6,1 8,3 1,2 3,4 3,7 0,3 -2,6 -3,8 -2,1 -5,2 -7,3l0 0c0,0 0,0 0,0 0,0 0,0 -1,0l-1 2 -1 1c0,5 0,9 1,14l-1 0 0 0 -1 0c-1,-1 -3,-5 -5,-10l0 0 -18 15 0 1 0 -1 -2 -1 -5 2c0,0 0,1 0,0zm-7 8c0,1 0,2 3,3 -2,-2 -1,-3 0,-4 1,0 1,0 1,0 -1,0 -2,0 -4,0 0,1 0,1 0,1zm0 3c-1,-1 -2,-2 -2,-3 0,0 0,1 -1,1 0,0 0,0 0,0 1,1 1,1 1,1 1,0 2,1 2,1zm10 1c2,0 3,-1 4,-1 1,-1 1,-1 1,-2 0,0 0,-1 -1,-2 -1,0 -3,-1 -5,-1 -2,1 -4,2 -5,2 -1,1 -1,1 0,2 1,1 3,1 6,2zm6 -3c0,1 0,2 -1,3 2,-1 4,-1 5,-2 1,-1 2,-2 1,-4 -1,-1 -5,-1 -9,-1 1,1 2,1 2,1 2,1 2,2 2,3zm22 -16c-1,-6 -2,-10 -3,-12 0,0 0,0 0,0l-1 1c1,5 3,8 4,11zm-4 -11l-1 -1 1 0 -1 -2 0 -1c0,2 0,3 1,4zm-1 -4l-1 0 3 2 0 0c0,1 1,1 1,1 0,0 0,0 1,-1l1 -1 -7 -6c1,2 1,3 2,5zm-2 -7l0 0 7 8 2 -2c0,0 0,0 0,0 0,0 0,0 0,-1l-10 -9c0,1 1,3 1,4zm-1 -5l0 0c0,0 0,0 0,-1l0 1zm1 17c-1,-3 -3,-7 -4,-10l-1 -1 -18 21 6 6 17 -16zm-4 -11c0,-1 -1,-2 -1,-2 0,0 0,0 0,0l0 0c0,0 0,0 0,1 0,0 0,0 0,0l0 0 1 1 0 0zm-1 -2c0,0 0,0 0,0 0,0 0,0 0,0zm0 -1c0,0 0,0 0,0 0,0 0,0 0,0zm0 0c0,0 0,0 0,0 0,0 0,0 0,0zm0 0c0,0 0,0 0,0 0,0 0,0 0,0zm14 7l0 0c3,0 5,-1 7,-3 2,-2 3,-4 3,-7 0,-2 -1,-5 -3,-6 -2,-2 -4,-3 -7,-3 -2,0 -5,1 -6,3 -2,1 -3,4 -3,6l9 10zm-15 2l3 3 0 -1 0 0c0,0 0,0 0,0 0,0 0,0 0,0l-2 -3c0,0 -1,0 -1,0 0,0 0,0 0,0l0 0 0 1zm3 3l0 0 0 0 -2 3 0 0 0 0 -3 2c0,0 0,0 0,0 -1,0 -1,0 -1,0l-3 -3 0 0c0,0 0,0 0,0 0,0 0,-1 0,-1l0 0 3 -2 0 0 0 -1 2 -2 0 0 0 0 1 0 0 0c0,0 0,-1 0,-1 1,0 1,1 1,1l3 2c0,0 0,1 0,1 0,0 0,0 0,1l0 0 -1 0zm-3 2l-3 -3 -2 3 0 0c0,0 0,0 0,0 0,0 0,0 0,0l0 0 2 3c0,0 0,0 1,0 0,0 0,0 0,0l2 -3zm2 -2l-3 -3 -1 2 3 3 1 -2z"/>
 </g>
</svg>
